<svg width="387" height="225" viewBox="0 0 387 225" fill="none" xmlns="http://www.w3.org/2000/svg">
<path d="M256.968 51.5027C257.312 48.9761 257.659 46.4324 258.002 43.8739C258.109 43.1223 258.178 42.4554 258.227 41.7104C258.235 41.3638 258.243 40.9973 258.13 40.6966C257.888 40.0509 257.266 39.729 256.683 39.9476C256.221 40.121 255.846 40.6505 255.68 41.3646C255.321 43.0455 254.949 44.788 254.635 46.5044C253.429 53.5646 251.741 60.919 249.161 70.3477C240.284 102.656 232.039 123.469 224.657 132.207C223.545 133.444 222.234 134.769 220.907 135.267C219.651 135.738 218.557 135.406 217.562 134.249C216.62 133.14 215.81 131.693 215.155 129.948C213.208 124.759 212.385 116.932 212.641 106.02C212.794 95.6395 214.098 84.8295 216.744 71.9968C217.734 67.0651 218.736 63.2773 219.993 59.7155C220.022 59.628 220.047 59.5342 220.073 59.4396C220.138 59.1969 220.189 59.0029 220.301 58.8662C220.994 58.2419 221.339 57.4339 221.673 56.6529C221.746 56.4812 221.819 56.3102 221.894 56.143C222.144 55.5936 222.178 55.0142 221.989 54.5115C221.836 54.1027 221.604 53.7972 221.301 53.603C220.697 53.2172 219.699 53.1961 218.758 53.549C218.391 53.6869 218.039 53.9057 217.841 54.1198C216.426 55.5216 214.711 61.0278 214.246 62.8764C210.225 77.2726 209.466 91.8978 209.254 103.031L209.252 103.12C209.129 110.892 208.944 122.635 211.95 130.646C212.274 131.508 212.644 132.322 213.049 133.064C215.364 137.51 218.437 139.283 221.702 138.058C222.755 137.663 223.809 136.98 224.834 136.03C236.115 125.808 245.758 90.219 250.393 73.1159L250.763 73.1878C248.455 92.8937 247.805 101.765 249.566 123.906C249.982 129.333 250.745 136.512 252.017 139.901L252.079 140.067C252.436 141.018 253.232 141.873 254.003 141.584C254.089 141.552 254.289 141.476 254.408 141.291C254.579 141.068 254.62 140.792 254.524 140.537C254.469 140.389 254.37 140.271 254.255 140.133C254.094 139.941 253.896 139.705 253.75 139.314C253.697 139.172 253.65 139.049 253.646 138.935L253.633 138.846C252.429 133.498 252.149 129.325 251.858 123.573C250.541 98.6344 253.659 75.7655 256.961 51.5537L256.968 51.5027Z" fill="#F9AC86"/>
<path d="M164.071 152.792C164.38 152.756 164.646 152.656 164.928 152.55C169.619 150.79 174.573 141.416 178.943 133.146C181.216 128.848 183.36 124.79 185.137 122.461C185.387 122.209 185.523 121.891 185.631 121.636L185.881 121.045L185.474 120.86C185.371 120.793 185.279 120.733 185.163 120.68L184.856 120.541L184.641 120.8C184.498 120.972 184.351 121.13 184.205 121.289C184.028 121.479 183.865 121.655 183.71 121.842C182.557 123.217 180.826 126.491 178.636 130.635C174.463 138.534 168.748 149.352 164.569 150.92C164.378 150.992 164.145 151.043 163.858 151.075C162.715 151.206 161.87 150.727 161.349 149.655L161.218 149.306C160.093 146.309 161.402 141.129 162.358 137.346C162.947 135.017 163.274 133.669 163.157 133.017C163.116 132.509 162.972 132.125 162.845 131.787C162.034 129.625 160.004 129.465 158.165 129.485L157.941 129.487L157.976 129.266C158.053 128.772 158.008 128.312 157.839 127.861C157.339 126.529 155.874 126.171 154.746 126.594C154.163 126.813 153.715 127.239 153.45 127.826C152.918 129.306 152.855 130.883 153.285 132.031C153.496 132.593 153.839 133.025 154.275 133.284L154.444 133.383L154.339 133.548C152.382 136.639 145.669 146.846 141.461 148.426C140.77 148.641 140.399 148.477 140.17 147.868C139.746 146.739 139.932 144.511 140.081 142.721C140.175 141.59 140.265 140.521 140.209 139.793L140.191 139.467C140.151 138.722 140.109 137.955 139.87 137.317C139.631 136.68 139.173 136.29 138.546 136.189C138.257 136.159 137.994 136.162 137.684 136.278C136.86 136.587 136.379 137.46 135.956 138.229L135.762 138.578C135.569 138.958 135.266 139.884 134.809 141.285C133.334 145.807 130.268 155.213 127.001 156.44C126.307 156.646 126.011 156.657 125.607 155.962L125.57 155.87C125.165 154.791 125.795 149.961 127.036 144.635C127.188 143.774 127.455 143.014 127.712 142.278C127.887 141.781 128.048 141.322 128.169 140.861C128.285 140.46 128.276 140.048 128.145 139.698C127.832 138.863 127.037 138.444 126.297 138.721C125.755 138.925 125.296 139.493 124.931 140.409C124.765 140.854 124.22 142.723 123.717 145.01C122.759 147.263 121.343 150.312 120.211 152.213C118.147 155.679 114.861 159.705 110.927 159.188C108.845 158.878 108.056 157.071 107.221 155.157C106.975 154.596 106.725 154.021 106.438 153.505C105.617 152.082 104.697 152.063 104.071 152.298C103.643 152.459 103.252 152.825 102.875 153.416C102.277 154.381 101.107 156.984 100.075 159.28L100.018 159.405C99.559 160.426 99.1628 161.308 98.8971 161.863C98.7112 162.215 98.4794 162.538 98.1862 162.948L97.954 163.275L97.8217 162.962C97.8031 162.918 97.7861 162.875 97.7701 162.832C97.7171 162.691 97.6865 162.512 97.6757 162.27C97.455 160.48 97.2709 158.851 97.2639 157.18C97.242 156.272 97.2784 155.137 97.3161 153.936C97.3985 151.362 97.4911 148.448 97.0138 146.693L96.895 146.379C96.4421 145.172 95.3492 144.657 94.1759 145.097C93.9461 145.184 93.5981 145.314 93.329 145.561C90.2944 148.019 87.138 153.61 85.1925 158.025L84.7578 159.011L84.8308 157.936C84.8818 157.177 84.9154 156.538 84.9363 155.923C84.9203 155.5 84.8607 155.165 84.7427 154.851C84.4122 153.97 83.5561 153.562 82.7077 153.88C82.1701 154.082 81.7688 154.51 81.5462 155.119L81.3419 155.692C80.9278 156.844 80.4998 158.034 80.4938 159.258L80.5092 159.825L80.4653 159.878C80.4287 159.921 80.4172 159.934 80.4076 159.949C80.0575 160.457 79.7164 160.957 79.3752 161.458C78.6649 162.502 77.9516 163.55 77.2376 164.523C74.9786 167.526 67.6694 175.784 64.3576 177.485L64.039 177.606C63.733 177.721 63.0152 177.99 62.5267 176.689C62.1742 175.75 62.2001 174.477 62.33 173.672C62.6645 171.959 63.0818 170.221 63.4853 168.539C63.7167 167.579 63.9378 166.658 64.1393 165.765C64.1797 165.616 64.23 165.475 64.2795 165.336C64.4028 164.991 64.5345 164.623 64.5166 164.256C64.5244 164.025 64.4488 163.824 64.3756 163.629C64.0814 162.845 63.3454 162.471 62.6253 162.742C62.0173 162.97 61.5007 163.59 60.9998 164.694C59.464 168.181 58.4107 173.614 59.73 177.3L59.7706 177.408C60.5832 179.574 62.3268 180.454 64.3219 179.705C64.6344 179.588 64.9782 179.389 65.3109 179.196C71.0517 175.525 76.3121 168.337 80.2532 162.487L80.5762 162.008L80.5995 162.585C80.6854 164.707 80.8009 166.852 80.9024 168.696L80.906 168.761C80.9676 169.877 81.0283 170.993 81.0844 172.112C81.1385 172.989 81.2492 173.612 81.4445 174.133C82.0314 175.697 83.1133 175.43 83.4311 175.31C84.1973 175.023 84.8388 174.086 85.1906 172.741C85.4518 171.704 85.6864 170.643 85.9134 169.617C86.2836 167.94 86.6619 166.229 87.1626 164.566C88.8662 158.544 90.8279 153.968 93.3365 150.172C93.5931 149.769 93.8838 149.389 94.1841 149.002L94.4411 148.67L94.5192 149.083C94.5348 149.164 94.5449 149.233 94.5519 149.282C94.569 150.41 94.5715 151.52 94.575 152.632L94.575 152.686C94.5823 155.571 94.5898 158.548 94.8212 161.483C94.8799 162.113 95.0653 162.85 95.3728 163.669C95.5014 164.012 95.6346 164.367 95.8145 164.675C96.3969 165.838 97.4789 166.316 98.5765 165.904C99.0143 165.74 99.3642 165.512 99.6458 165.208C100.887 163.941 102.022 160.975 103.023 158.358C103.467 157.197 103.926 155.997 104.325 155.16L104.494 154.806L104.667 155.159C105.999 157.886 107.674 160.816 110.708 161.062C111.757 161.117 112.769 160.957 113.8 160.57C117.206 159.292 119.761 155.769 121.305 153.039C121.67 152.401 122.03 151.75 122.374 151.105L122.806 150.295L122.73 151.21C122.519 153.732 122.659 155.67 123.146 156.969L123.249 157.237C123.978 158.776 125.74 159.487 127.529 158.951L127.85 158.831C131.765 157.361 133.611 151.79 135.239 146.874C135.536 145.975 135.815 145.134 136.094 144.354L136.366 143.595L136.46 144.396C136.629 145.828 136.905 147.063 137.282 148.068C138.127 150.319 139.448 151.315 141.103 150.95L141.663 150.745C146.719 148.847 151.67 141.009 155.285 135.286C155.675 134.668 156.042 134.091 156.396 133.539L156.445 133.461L156.537 133.452C156.708 133.437 156.88 133.419 157.05 133.402C158.201 133.282 159.39 133.157 159.612 133.789C159.628 133.883 159.635 133.951 159.655 134.026C159.718 134.859 159.465 136.315 159.171 138.001C158.565 141.483 157.736 146.244 158.945 149.464C159.217 150.189 159.506 150.727 159.853 151.157C160.624 152.136 161.799 153.204 164.071 152.792Z" fill="#F9AC86"/>
<path d="M322.84 69.0836C322.425 69.9389 322.112 70.6806 321.835 71.3359C321.702 71.6497 321.58 71.9397 321.46 72.2083L320.898 73.4794L321.1 72.1041C321.262 71.0056 321.582 69.561 321.955 69.1042L322.088 68.9782C322.258 68.8179 322.317 68.7662 322.357 68.7417L322.405 68.713L322.462 68.7147C322.514 68.7165 322.591 68.732 322.768 68.8382L322.916 68.9276L322.84 69.0836ZM304.92 82.7586C304.922 82.9033 304.922 83.0474 304.92 83.1899C304.582 88.5927 303.182 93.7336 300.639 98.915C300.053 100.12 299.36 100.968 298.786 101.183C298.465 101.304 298.233 101.14 298.055 100.668C297.664 99.625 297.807 97.6456 298.44 95.3728C299.663 90.8761 301.727 86.5955 304.577 82.6514L304.909 82.1919L304.92 82.7586ZM296.11 73.5706C296.934 66.2371 298.687 59.1091 301.321 52.3843C301.703 51.4613 302.239 50.5543 302.758 49.677L303.048 49.1853C303.1 49.0929 303.168 48.9979 303.247 48.9017L303.536 48.5443L303.582 49.0022C303.604 49.2293 303.608 49.3937 303.593 49.5362C302.543 58.3365 299.236 67.0533 296.472 73.6643L295.962 74.8856L296.11 73.5706ZM351.796 59.7614C352.041 60.5745 352.37 61.6331 352.778 62.719C353.556 64.7944 354.778 67.2117 357.331 67.4792C358.242 67.603 359.139 67.4912 360.082 67.1376C364.7 65.4043 368.326 58.2093 370.552 52.4785C370.668 52.2248 370.68 51.923 370.589 51.6808C370.41 51.2022 370.087 51.2081 369.848 51.2979C369.519 51.4211 369.32 51.8375 368.528 53.5805C367.04 56.857 363.944 63.6715 359.916 65.1831C359.257 65.4305 358.543 65.5238 357.854 65.4515C357.204 65.3573 356.186 64.576 354.988 61.3846C354.629 60.4281 354.311 59.4234 354.03 58.5367C353.804 57.8235 353.609 57.2071 353.431 56.7321L353.336 56.4819C352.662 54.9262 351.577 54.6848 350.788 54.981C350.369 55.138 350.013 55.4294 349.633 55.9258C348.523 57.361 345.944 62.2147 344.061 65.7588L343.122 67.524L343.278 66.4489C343.625 64.0669 344.035 60.7132 344.015 58.2646C344.007 58.0649 343.959 57.7202 343.849 57.426C343.742 57.1413 343.537 56.9123 343.285 56.7984L343.214 56.7612L343.149 56.7538C342.911 56.6814 342.54 56.5616 342.104 56.7252L341.994 56.7665C341.484 56.958 341.077 57.5052 340.622 58.2681C339.954 59.3911 339.214 60.9211 338.358 62.6934C335.794 67.9972 332.288 75.2528 327.869 76.9576C327.043 77.2673 326.254 76.7824 325.857 75.7237C325.619 75.0904 325.528 74.4432 325.579 73.7466C325.679 72.1309 325.967 70.3106 326.2 68.8477C326.41 67.5282 326.574 66.4941 326.561 65.9261C326.572 65.6934 326.495 65.4884 326.421 65.2905C326.11 64.4617 325.427 64.0568 324.76 64.3071L324.471 64.4397C324.237 64.6285 324.105 65.0326 323.86 65.908L323.71 66.4271L323.505 66.3188C322.846 65.9703 322.166 65.9112 321.538 66.1468C320.614 66.4936 319.825 67.4705 319.125 69.135C319.092 69.239 318.975 69.6937 318.845 70.2904L318.824 70.3858L318.733 70.4245C318.583 70.4885 318.415 70.5662 318.232 70.6679C313.733 72.729 310.403 74.5318 306.66 77.6701L306.469 77.8294L306.366 77.6026C306.025 76.851 305.458 75.9246 304.095 75.4287C303.448 75.2402 302.789 75.2643 302.147 75.5053C300.526 76.1134 299.041 77.9304 298.262 79.3003L294.919 85.8189L294.922 85.0276C294.922 84.9042 294.921 84.7827 294.92 84.6645C294.925 82.481 295.44 80.4796 296.538 78.3641C300.926 69.6395 304.029 60.5949 305.76 51.4834C305.972 50.5757 306.084 49.6931 306.087 48.9236C306.142 48.3942 306.054 47.842 305.82 47.2169C305.289 45.8014 304.043 45.1408 302.79 45.6108C302.555 45.6991 302.352 45.7751 302.098 45.9501C299.886 47.5284 297.998 51.2717 296.805 54.1331C293.592 62.1864 291.803 70.9817 291.338 81.0195L291.335 81.0887L291.287 81.1396C291.136 81.3022 290.984 81.4648 290.841 81.6384C289.688 83.0129 287.958 86.2858 285.768 90.4296C281.594 98.3308 275.878 109.149 271.7 110.717C271.508 110.789 271.276 110.84 270.988 110.872C269.845 111.003 269 110.525 268.48 109.451L268.348 109.103C267.224 106.107 268.533 100.927 269.488 97.1457C270.077 94.8136 270.405 93.4647 270.288 92.8143C270.246 92.3057 270.102 91.9223 269.975 91.5838C269.164 89.4215 267.135 89.2618 265.295 89.2814L265.072 89.2837L265.106 89.0632C265.183 88.5685 265.138 88.1089 264.969 87.6582C264.469 86.326 263.004 85.9678 261.876 86.3913C261.293 86.6099 260.846 87.0353 260.58 87.6229C260.049 89.1028 259.985 90.6796 260.416 91.8275C260.658 92.4726 261.067 92.9528 261.567 93.1804L261.662 93.212C262.387 93.3874 263.299 93.2913 264.181 93.199C265.331 93.0786 266.52 92.9538 266.743 93.5855C266.758 93.6799 266.766 93.7477 266.786 93.8233C266.849 94.657 266.595 96.1158 266.301 97.8046C265.695 101.281 264.867 106.041 266.076 109.261C266.348 109.986 266.636 110.524 266.984 110.954C267.756 111.933 268.931 113.001 271.202 112.588C271.51 112.553 271.776 112.453 272.059 112.347C276.75 110.587 281.704 101.212 286.074 92.9428C287.796 89.6832 289.423 86.604 290.898 84.2619L291.255 83.6939L291.247 84.3653C291.21 87.4202 291.219 90.5767 291.272 93.7464C291.244 94.1135 291.348 94.3893 291.439 94.6333C291.759 95.4852 292.605 95.9296 293.364 95.6447C293.897 95.4445 294.288 94.9581 294.524 94.2003C296.081 88.9978 298.215 81.8697 302.119 77.9313L302.157 77.8873C302.294 77.7147 302.47 77.5899 302.707 77.501C303.367 77.2534 303.89 77.9357 304.085 78.2402L304.226 78.6045C304.329 78.881 304.458 79.2249 304.511 79.4735L304.527 79.5556L304.478 79.6233C304.456 79.6523 304.437 79.6811 304.423 79.7046C300.453 85.136 298.73 88.0982 296.336 94.9572C295.44 97.5924 295.281 99.8276 295.879 101.421C296.557 103.228 298.179 104.058 299.823 103.442C300.438 103.211 300.939 102.856 301.272 102.416C301.984 101.648 302.488 100.905 302.743 100.254C305.751 93.4225 307.676 88.3777 307.091 80.738C307.019 80.0054 307.255 79.6236 307.779 79.0929C310.227 76.7169 312.751 75.0769 315.787 73.3445C316.54 72.927 317.129 72.6273 317.752 72.3094L318.536 71.908L318.483 72.2707C318.262 73.7934 318.229 74.9797 318.387 75.7975L318.512 76.1503C318.835 77.0128 319.781 77.4033 320.711 77.0543C320.998 76.9466 321.404 76.7384 321.706 76.3587C322.252 75.6618 322.672 74.8586 323.135 73.8679L323.418 73.2623L323.495 73.9264C323.59 74.7533 323.767 75.5281 324.006 76.1655C324.841 78.3904 326.439 79.1319 328.627 78.3108L328.958 78.1832C333.887 75.7714 337.507 68.2864 340.416 62.272L341.513 60.0123L341.339 61.216C341.222 62.0229 341.077 62.836 340.925 63.6968L340.913 63.7659C340.498 66.1007 340.068 68.5159 340.149 70.9749C340.13 71.3452 339.964 71.8598 339.804 72.3574C339.514 73.2525 339.219 74.1675 339.472 74.8416C339.617 75.2291 339.963 75.4996 340.422 75.5838C340.883 75.668 341.265 75.6499 341.59 75.5282C342.64 75.1343 343.204 73.9618 343.751 72.8275C343.877 72.565 344.003 72.3041 344.14 72.043L344.206 71.9099C346.349 67.5874 348.548 63.1538 350.774 58.7509C350.824 58.6426 350.892 58.5249 350.997 58.3634L351.215 58.03L351.336 58.4093C351.476 58.8507 351.63 59.3203 351.796 59.7614Z" fill="#F9AC86"/>
<path d="M65.3299 156.207C64.8096 156.207 64.347 156.291 63.8685 156.471C62.4353 157.009 62.045 158.25 62.4006 159.197C62.743 160.109 63.6309 160.532 64.5112 160.202C64.6961 160.133 64.8455 160.026 65.0036 159.914L65.1435 159.814C66.9798 158.397 66.9578 157.393 66.7809 156.922C66.6024 156.446 66.0601 156.179 65.3299 156.207Z" fill="#F9AC86"/>
<path d="M50.2941 139.055L50.2939 139.055C51.4876 131.887 52.5169 124.463 53.353 116.989C53.4526 116.491 53.6527 116.326 53.9239 116.224L56.8352 115.194C58.8491 114.439 62.0503 113.299 66.617 111.713C70.9034 110.226 74.9888 108.864 79.8845 107.238C85.1441 105.492 87.9247 104.829 89.1139 104.589L89.2834 104.556C90.2858 104.359 91.292 104.161 92.3563 103.942L92.5986 103.889C93.7275 103.639 94.8894 103.383 96.0815 103.217C96.3105 103.22 96.4723 103.159 96.6443 103.095C97.5611 102.751 97.6897 102.1 97.5043 101.606C97.2631 100.963 96.6063 100.335 94.847 100.996C93.7434 101.41 92.9458 101.709 92.612 101.775C84.036 103.71 72.0885 107.322 57.1067 112.509L54.2742 113.445C54.2724 113.446 54.2712 113.447 54.27 113.447C54.1028 113.51 53.9557 113.554 53.8281 113.581L53.687 113.609L53.6213 113.48C53.4355 113.112 53.103 112.812 52.6616 112.611C52.2044 112.404 51.7124 112.388 51.2386 112.565C50.6921 112.77 50.2455 113.227 49.9461 113.886C49.8393 114.122 49.729 114.365 49.7101 114.618L49.6994 114.669C49.5951 114.959 49.3375 115.172 48.8885 115.341L41.5726 117.897C37.8176 119.241 33.9723 120.551 30.579 121.707L27.6132 122.756C19.7907 125.692 12.2139 129.433 5.09684 133.874L2.74155 135.546C1.94239 136.346 1.9762 137.06 2.14757 137.517C2.51516 138.496 3.27121 138.911 4.22183 138.656C4.52459 138.611 4.81442 138.502 5.15022 138.376C6.63018 137.821 8.27039 136.992 10.0262 135.912L12.175 134.726C23.0814 128.755 35.4178 123.171 48.8426 118.131L49.133 118.022L49.0972 118.33C49.0787 118.487 49.0619 118.631 49.0574 118.655L49.0029 118.842C45.1954 143.425 42.8601 171.956 42.0692 203.618C41.9007 208.965 42.0598 214.473 42.543 219.989C42.5307 220.117 42.5383 220.201 42.5455 220.282L42.5433 220.393C42.5529 220.639 42.6156 220.806 42.6817 220.982C42.8167 221.342 43.0922 221.531 43.458 221.517L43.5294 221.514L43.7623 221.427C44.2245 221.253 44.2463 220.722 44.2064 220.226L44.1583 219.935C43.9792 217.124 43.9091 214.234 43.9498 211.347C44.5712 185.503 46.7055 161.181 50.2941 139.055Z" fill="#F9AC86"/>
</svg>
