<svg width="237" height="180" viewBox="0 0 237 180" fill="none" xmlns="http://www.w3.org/2000/svg">
<g id="g10">
<g id="g12">
<path id="path16" d="M83.1242 57.2535C83.5426 54.2355 83.9638 51.197 84.3808 48.1409C84.5097 47.2432 84.5941 46.4465 84.655 45.5564C84.6648 45.1424 84.6762 44.7044 84.5421 44.3448C84.2543 43.5727 83.5117 43.1864 82.8151 43.4461C82.2627 43.652 81.8134 44.2837 81.6131 45.1365C81.1793 47.144 80.7295 49.2251 80.3503 51.2751C78.8909 59.7077 76.8541 68.4908 73.7463 79.7498C63.0534 118.33 53.1474 143.176 44.3034 153.598C42.9716 155.072 41.4012 156.653 39.8151 157.244C38.3131 157.804 37.0067 157.403 35.8205 156.019C34.6977 154.69 33.7338 152.959 32.9562 150.873C30.6433 144.668 29.6806 135.313 30.0152 122.277C30.2262 109.873 31.8131 96.9603 35.0086 81.6341C36.2047 75.7441 37.4122 71.221 38.9233 66.9684C38.9576 66.8639 38.9883 66.7519 39.0194 66.6389C39.0973 66.3492 39.1597 66.1175 39.2929 65.9544C40.1235 65.2103 40.5373 64.2458 40.9381 63.3135C41.0258 63.1086 41.1139 62.9044 41.2045 62.7049C41.5047 62.049 41.546 61.3569 41.3219 60.7557C41.1397 60.2668 40.8642 59.9012 40.5023 59.6684C39.7811 59.2058 38.5887 59.1779 37.464 59.5972C37.0245 59.761 36.6043 60.0214 36.3663 60.2767C34.6719 61.9479 32.6084 68.5224 32.0481 70.73C27.2053 87.9206 26.2592 105.394 25.9761 118.696L25.9746 118.802C25.807 128.088 25.554 142.119 29.1248 151.699C29.5093 152.73 29.9492 153.703 30.4312 154.59C33.1863 159.909 36.853 162.036 40.757 160.58C42.0167 160.111 43.2779 159.298 44.5053 158.165C58.0112 145.982 69.6279 103.484 75.2105 83.0606L75.6533 83.1475C72.843 106.687 72.0427 117.285 74.0886 143.745C74.5714 150.23 75.4636 158.811 76.9741 162.863L77.0481 163.062C77.4721 164.199 78.421 165.223 79.3429 164.879C79.4454 164.841 79.6849 164.752 79.8279 164.531C80.0328 164.265 80.0818 163.934 79.9683 163.63C79.9022 163.453 79.7844 163.311 79.6482 163.147C79.4554 162.917 79.2206 162.634 79.0462 162.166C78.983 161.997 78.9283 161.85 78.9233 161.713L78.9085 161.607C77.4837 155.213 77.1603 150.227 76.8277 143.353C75.3198 113.552 79.1063 86.2352 83.1164 57.3144L83.1242 57.2535Z" fill="#6A5A50"/>
<path id="path20" d="M161.786 78.4346C161.288 79.4555 160.911 80.3409 160.578 81.1232C160.419 81.4978 160.272 81.8439 160.129 82.1646L159.454 83.6819L159.699 82.0391C159.895 80.727 160.282 79.0017 160.729 78.4569L160.888 78.3067C161.092 78.1157 161.162 78.054 161.21 78.0249L161.267 77.9907L161.335 77.9929C161.397 77.9952 161.49 78.0139 161.7 78.1413L161.877 78.2484L161.786 78.4346ZM140.337 94.7267C140.34 94.8996 140.34 95.0718 140.336 95.2421C139.918 101.697 138.231 107.836 135.179 114.02C134.476 115.458 133.646 116.469 132.959 116.725C132.575 116.869 132.298 116.672 132.088 116.107C131.623 114.86 131.8 112.496 132.561 109.782C134.034 104.412 136.512 99.3028 139.928 94.5977L140.326 94.0496L140.337 94.7267ZM129.835 83.725C130.839 74.9648 132.953 66.4525 136.118 58.4243C136.576 57.3225 137.22 56.2402 137.842 55.1933L138.19 54.6066C138.252 54.4963 138.334 54.383 138.428 54.2683L138.775 53.842L138.829 54.3893C138.854 54.6606 138.858 54.8571 138.84 55.0274C137.562 65.5397 133.588 75.9461 130.268 83.838L129.655 85.2959L129.835 83.725ZM196.408 67.3728C196.699 68.3451 197.09 69.6108 197.574 70.9093C198.499 73.3912 199.952 76.2828 203.001 76.6092C204.09 76.7595 205.162 76.6284 206.289 76.2083C211.812 74.1496 216.163 65.5622 218.839 58.7206C218.978 58.4178 218.993 58.0572 218.885 57.7676C218.672 57.1953 218.287 57.2014 218 57.3081C217.608 57.4545 217.369 57.9515 216.418 60.032C214.631 63.943 210.914 72.0771 206.097 73.8725C205.308 74.1664 204.455 74.276 203.632 74.1877C202.855 74.0735 201.641 73.1372 200.218 69.3208C199.792 68.177 199.414 66.9757 199.081 65.9154C198.813 65.0626 198.582 64.3257 198.37 63.7577L198.258 63.4584C197.456 61.5977 196.16 61.3065 195.216 61.6583C194.716 61.8448 194.29 62.1921 193.834 62.7842C192.504 64.4961 189.41 70.2887 187.151 74.5183L186.024 76.625L186.214 75.3408C186.634 72.4957 187.133 68.4895 187.115 65.5638C187.106 65.3251 187.05 64.9131 186.919 64.5613C186.792 64.2208 186.547 63.9466 186.247 63.81L186.162 63.7652L186.084 63.7563C185.8 63.6691 185.358 63.525 184.836 63.7194L184.705 63.7684C184.095 63.9959 183.606 64.6485 183.062 65.5589C182.26 66.8989 181.371 68.7251 180.344 70.8405C177.267 77.171 173.058 85.831 167.773 87.8563C166.786 88.2242 165.845 87.6426 165.373 86.3766C165.091 85.6193 164.983 84.8458 165.046 84.0136C165.169 82.0833 165.519 79.9091 165.801 78.1617C166.055 76.5856 166.254 75.3505 166.24 74.6718C166.254 74.3938 166.163 74.1487 166.074 73.912C165.705 72.9208 164.89 72.4353 164.092 72.7326L163.747 72.8902C163.467 73.1152 163.308 73.5977 163.012 74.643L162.832 75.2629L162.587 75.1329C161.801 74.7148 160.989 74.6423 160.238 74.9222C159.133 75.3341 158.188 76.4992 157.347 78.4862C157.307 78.6104 157.165 79.1534 157.009 79.866L156.984 79.98L156.875 80.026C156.695 80.102 156.495 80.1944 156.276 80.3154C150.895 82.7662 146.911 84.9114 142.43 88.6514L142.201 88.8412L142.079 88.57C141.673 87.6709 140.999 86.5625 139.371 85.9664C138.598 85.7394 137.811 85.7665 137.043 86.0528C135.105 86.7751 133.326 88.9421 132.392 90.5769L128.379 98.3568L128.386 97.4114C128.386 97.2639 128.385 97.1187 128.384 96.9775C128.396 94.3685 129.016 91.9785 130.334 89.4538C135.6 79.0407 139.332 68.242 141.425 57.3597C141.679 56.2757 141.816 55.2214 141.822 54.302C141.888 53.6696 141.786 53.0095 141.507 52.2621C140.876 50.5693 139.389 49.7767 137.891 50.335C137.61 50.4398 137.368 50.5301 137.063 50.7385C134.416 52.6185 132.15 57.0862 130.717 60.5019C126.857 70.1159 124.696 80.6203 124.113 92.6127L124.109 92.6954L124.052 92.7561C123.871 92.9499 123.69 93.1438 123.519 93.3509C122.136 94.9902 120.061 98.8963 117.434 103.842C112.425 113.271 105.567 126.182 100.57 128.045C100.341 128.13 100.063 128.19 99.7196 128.228C98.3531 128.381 97.3451 127.808 96.7259 126.524L96.5698 126.108C95.2342 122.524 96.8119 116.339 97.9634 111.823C98.6738 109.038 99.0687 107.427 98.931 106.65C98.8823 106.042 98.7113 105.584 98.5605 105.179C97.5966 102.593 95.1723 102.397 92.9745 102.415L92.7074 102.418L92.7493 102.154C92.8428 101.563 92.7902 101.014 92.5892 100.475C91.9954 98.8818 90.2461 98.45 88.8967 98.953C88.2001 99.2127 87.6642 99.7198 87.3454 100.421C86.7069 102.188 86.6263 104.072 87.1379 105.445C87.4255 106.216 87.9125 106.791 88.5092 107.064L88.6231 107.102C89.4889 107.314 90.5784 107.201 91.6324 107.093C93.0074 106.953 94.4287 106.807 94.6925 107.562C94.7113 107.675 94.7206 107.756 94.7438 107.846C94.8166 108.843 94.5093 110.585 94.1532 112.602C93.4203 116.754 92.4184 122.439 93.8539 126.29C94.177 127.157 94.52 127.801 94.9347 128.316C95.8542 129.487 97.2556 130.767 99.9699 130.28C100.339 130.238 100.657 130.119 100.995 129.993C106.605 127.902 112.549 116.715 117.792 106.845C119.859 102.955 121.811 99.2803 123.579 96.4858L124.007 95.808L123.996 96.6102C123.944 100.26 123.946 104.032 124.002 107.819C123.967 108.258 124.09 108.588 124.199 108.88C124.579 109.898 125.588 110.431 126.495 110.093C127.133 109.855 127.602 109.275 127.886 108.37C129.76 102.158 132.329 93.6469 137.003 88.9514L137.049 88.8989C137.213 88.693 137.424 88.5444 137.707 88.4388C138.496 88.1447 139.12 88.9614 139.352 89.3257L139.519 89.7614C139.642 90.092 139.795 90.5032 139.857 90.8004L139.877 90.8985L139.818 90.9793C139.792 91.0139 139.769 91.0483 139.752 91.0763C134.993 97.5555 132.927 101.09 130.049 109.279C128.971 112.426 128.775 115.096 129.486 117.001C130.291 119.162 132.227 120.159 134.192 119.426C134.928 119.152 135.528 118.73 135.926 118.205C136.779 117.289 137.384 116.402 137.69 115.626C141.302 107.471 143.616 101.448 142.937 92.3181C142.853 91.4426 143.136 90.9871 143.763 90.3544C146.695 87.5218 149.715 85.569 153.347 83.5071C154.248 83.0103 154.952 82.6537 155.697 82.2755L156.635 81.7979L156.571 82.2313C156.303 84.05 156.261 85.4674 156.447 86.445L156.595 86.8668C156.98 87.8983 158.109 88.3674 159.221 87.9529C159.564 87.8249 160.049 87.5772 160.412 87.1243C161.066 86.2931 161.569 85.3345 162.126 84.152L162.465 83.4291L162.555 84.2228C162.667 85.2111 162.876 86.1373 163.16 86.8996C164.152 89.5602 166.059 90.4505 168.676 89.4751L169.072 89.3236C174.968 86.455 179.313 77.5211 182.805 70.3425L184.122 67.6453L183.91 69.0832C183.768 70.047 183.593 71.0181 183.408 72.0462L183.394 72.1288C182.892 74.9174 182.372 77.802 182.463 80.7404C182.439 81.1828 182.239 81.7972 182.046 82.3914C181.698 83.4602 181.343 84.5527 181.643 85.3588C181.816 85.8222 182.229 86.1463 182.776 86.248C183.327 86.3499 183.784 86.3294 184.172 86.1848C185.427 85.7169 186.105 84.3175 186.761 82.9635C186.913 82.6502 187.064 82.3388 187.229 82.0272L187.307 81.8684C189.879 76.7093 192.518 71.4177 195.19 66.1628C195.25 66.0335 195.331 65.893 195.457 65.7004L195.719 65.3025L195.863 65.756C196.029 66.2839 196.211 66.8453 196.408 67.3728Z" fill="#6A5A50"/>
</g>
</g>
</svg>
