<svg width="288" height="168" viewBox="0 0 288 168" fill="none" xmlns="http://www.w3.org/2000/svg">
<path d="M191.442 38.3699C191.699 36.4876 191.957 34.5925 192.213 32.6864C192.292 32.1265 192.344 31.6296 192.381 31.0746C192.386 30.8164 192.393 30.5433 192.309 30.3193C192.128 29.8382 191.664 29.5984 191.23 29.7613C190.886 29.8905 190.607 30.285 190.483 30.817C190.216 32.0693 189.938 33.3675 189.704 34.6462C188.806 39.906 187.548 45.3852 185.626 52.4096C179.013 76.4796 172.87 91.9852 167.371 98.4954C166.542 99.4163 165.565 100.404 164.577 100.775C163.641 101.126 162.826 100.878 162.085 100.017C161.383 99.1899 160.779 98.1118 160.292 96.8121C158.841 92.9464 158.228 87.115 158.418 78.986C158.533 71.2521 159.504 63.1986 161.475 53.6381C162.213 49.964 162.96 47.1421 163.896 44.4885C163.917 44.4233 163.936 44.3534 163.955 44.2829C164.004 44.1022 164.042 43.9576 164.125 43.8557C164.642 43.3906 164.899 42.7887 165.147 42.2068C165.202 42.079 165.256 41.9515 165.312 41.827C165.499 41.4176 165.524 40.986 165.383 40.6115C165.269 40.3069 165.096 40.0793 164.87 39.9347C164.42 39.6472 163.677 39.6315 162.976 39.8945C162.702 39.9972 162.44 40.1602 162.292 40.3197C161.238 41.364 159.961 45.4662 159.614 46.8434C156.619 57.5686 156.053 68.4645 155.895 76.759L155.894 76.8251C155.803 82.6153 155.664 91.3639 157.904 97.3321C158.145 97.9747 158.421 98.5807 158.722 99.1333C160.448 102.446 162.737 103.767 165.169 102.854C165.954 102.559 166.739 102.051 167.503 101.343C175.907 93.7278 183.091 67.2138 186.544 54.4719L186.82 54.5254C185.1 69.2064 184.616 75.8153 185.928 92.311C186.238 96.3537 186.806 101.702 187.754 104.227L187.8 104.351C188.066 105.059 188.659 105.696 189.234 105.481C189.297 105.457 189.447 105.401 189.536 105.263C189.663 105.097 189.693 104.891 189.622 104.701C189.58 104.591 189.507 104.503 189.422 104.4C189.301 104.257 189.154 104.081 189.045 103.79C189.005 103.684 188.971 103.593 188.968 103.507L188.958 103.441C188.061 99.4566 187.852 96.348 187.636 92.0624C186.654 73.4833 188.977 56.4459 191.437 38.4079L191.442 38.3699Z" fill="#463C37"/>
<path d="M122.234 113.831C122.464 113.804 122.662 113.73 122.872 113.651C126.367 112.339 130.058 105.356 133.314 99.1945C135.007 95.9924 136.604 92.9691 137.928 91.234C138.114 91.0462 138.215 90.8094 138.296 90.6194L138.482 90.179L138.179 90.0412C138.102 89.9913 138.034 89.9467 137.948 89.9076L137.719 89.8037L137.559 89.997C137.452 90.1247 137.343 90.2426 137.234 90.3609C137.102 90.5027 136.981 90.6337 136.865 90.7729C136.006 91.7973 134.717 94.2363 133.085 97.324C129.976 103.209 125.718 111.268 122.605 112.437C122.462 112.49 122.289 112.528 122.075 112.552C121.224 112.649 120.594 112.293 120.206 111.494L120.108 111.234C119.27 109.001 120.245 105.142 120.958 102.324C121.396 100.589 121.64 99.5838 121.553 99.0984C121.523 98.7198 121.415 98.4341 121.321 98.1819C120.716 96.571 119.204 96.4521 117.834 96.4668L117.667 96.4685L117.693 96.3042C117.75 95.9357 117.717 95.5933 117.591 95.2575C117.218 94.265 116.127 93.9982 115.287 94.3135C114.852 94.4765 114.518 94.7936 114.321 95.2312C113.925 96.3334 113.878 97.5085 114.199 98.3636C114.356 98.7822 114.611 99.1047 114.936 99.2975L115.061 99.3715L114.983 99.4942C113.525 101.797 108.524 109.401 105.389 110.579C104.874 110.738 104.598 110.617 104.427 110.162C104.112 109.322 104.25 107.662 104.361 106.328C104.432 105.485 104.498 104.689 104.456 104.147L104.443 103.904C104.413 103.349 104.382 102.777 104.204 102.302C104.026 101.827 103.684 101.537 103.217 101.461C103.002 101.439 102.807 101.441 102.575 101.528C101.962 101.758 101.603 102.408 101.288 102.981L101.143 103.242C101 103.525 100.774 104.214 100.434 105.258C99.3348 108.627 97.0502 115.635 94.6162 116.549C94.0993 116.702 93.8793 116.71 93.5781 116.193L93.5504 116.124C93.2488 115.32 93.718 111.722 94.6422 107.754C94.7555 107.113 94.9545 106.546 95.1465 105.998C95.2763 105.628 95.3964 105.286 95.4864 104.942C95.5731 104.643 95.5666 104.337 95.4687 104.076C95.2353 103.454 94.6435 103.141 94.092 103.348C93.6884 103.5 93.3461 103.923 93.074 104.606C92.9508 104.937 92.5444 106.329 92.1696 108.033C91.4558 109.712 90.4011 111.983 89.5579 113.4C88.02 115.982 85.5723 118.981 82.6411 118.596C81.0903 118.365 80.5026 117.019 79.8803 115.593C79.6972 115.175 79.5105 114.747 79.2972 114.362C78.6851 113.302 78 113.288 77.5335 113.463C77.2144 113.583 76.923 113.855 76.6423 114.296C76.1973 115.015 75.3256 116.954 74.5566 118.665L74.5143 118.758C74.172 119.518 73.8768 120.175 73.6789 120.589C73.5404 120.851 73.3677 121.092 73.1493 121.397L72.9763 121.641L72.8777 121.408C72.8639 121.375 72.8512 121.343 72.8393 121.311C72.7998 121.206 72.777 121.073 72.7689 120.892C72.6045 119.559 72.4674 118.345 72.4622 117.1C72.4459 116.424 72.473 115.578 72.501 114.683C72.5624 112.766 72.6315 110.595 72.2758 109.287L72.1873 109.053C71.8499 108.154 71.0357 107.77 70.1616 108.098C69.9904 108.163 69.7311 108.26 69.5306 108.444C67.2698 110.275 64.9183 114.44 63.4689 117.729L63.1451 118.464L63.1994 117.663C63.2374 117.098 63.2625 116.621 63.278 116.164C63.2661 115.848 63.2217 115.599 63.1338 115.365C62.8875 114.708 62.2498 114.405 61.6177 114.642C61.2172 114.792 60.9182 115.111 60.7524 115.564L60.6002 115.991C60.2917 116.85 59.9728 117.736 59.9684 118.648L59.9798 119.07L59.9471 119.11C59.9199 119.142 59.9113 119.151 59.9041 119.163C59.6433 119.541 59.3891 119.914 59.135 120.287C58.6058 121.065 58.0744 121.846 57.5425 122.571C55.8595 124.808 50.4141 130.96 47.9467 132.228L47.7094 132.318C47.4814 132.403 46.9466 132.604 46.5828 131.634C46.3202 130.934 46.3394 129.986 46.4362 129.387C46.6854 128.111 46.9963 126.815 47.2969 125.563C47.4693 124.847 47.634 124.161 47.7842 123.496C47.8142 123.385 47.8517 123.28 47.8886 123.176C47.9805 122.919 48.0785 122.645 48.0652 122.372C48.071 122.2 48.0147 122.05 47.9602 121.905C47.741 121.32 47.1927 121.042 46.6562 121.244C46.2033 121.414 45.8184 121.876 45.4452 122.698C44.301 125.296 43.5163 129.344 44.4992 132.09L44.5294 132.17C45.1348 133.783 46.4338 134.439 47.9202 133.882C48.153 133.794 48.4092 133.646 48.657 133.502C52.9339 130.767 56.853 125.412 59.7891 121.054L60.0297 120.697L60.0471 121.127C60.1111 122.708 60.1971 124.306 60.2727 125.679L60.2754 125.728C60.3213 126.559 60.3666 127.391 60.4084 128.224C60.4486 128.878 60.5311 129.342 60.6766 129.73C61.1138 130.895 61.9198 130.696 62.1566 130.607C62.7275 130.393 63.2054 129.695 63.4675 128.693C63.6621 127.921 63.8369 127.13 64.0059 126.366C64.2817 125.116 64.5636 123.842 64.9366 122.603C66.2058 118.116 67.6673 114.707 69.5362 111.879C69.7274 111.579 69.944 111.296 70.1677 111.007L70.3591 110.76L70.4173 111.068C70.4289 111.128 70.4365 111.179 70.4417 111.216C70.4545 112.057 70.4563 112.883 70.4589 113.711L70.4589 113.752C70.4644 115.902 70.47 118.119 70.6424 120.306C70.6861 120.775 70.8242 121.324 71.0533 121.935C71.1491 122.19 71.2483 122.454 71.3823 122.684C71.8163 123.55 72.6223 123.907 73.4401 123.6C73.7662 123.477 74.0269 123.308 74.2367 123.081C75.1614 122.137 76.0067 119.928 76.7528 117.978C77.0838 117.113 77.4257 116.219 77.723 115.595L77.8489 115.331L77.9772 115.594C78.9696 117.626 80.2176 119.809 82.4781 119.992C83.2593 120.033 84.0138 119.914 84.7814 119.626C87.3192 118.673 89.223 116.049 90.3733 114.015C90.6452 113.539 90.9132 113.055 91.1696 112.574L91.4915 111.97L91.4345 112.652C91.2771 114.531 91.3815 115.975 91.7447 116.943L91.8212 117.143C92.3645 118.289 93.6773 118.819 95.0102 118.419L95.2487 118.33C98.166 117.235 99.5407 113.084 100.754 109.422C100.975 108.752 101.183 108.126 101.391 107.545L101.593 106.979L101.664 107.576C101.789 108.643 101.995 109.563 102.276 110.311C102.905 111.988 103.89 112.731 105.122 112.459L105.54 112.306C109.307 110.892 112.995 105.053 115.688 100.789C115.979 100.329 116.252 99.8986 116.516 99.4875L116.553 99.4294L116.621 99.4228C116.749 99.4111 116.876 99.3983 117.003 99.3854C117.86 99.2957 118.746 99.2027 118.912 99.6734C118.924 99.7437 118.929 99.7944 118.944 99.8505C118.991 100.471 118.802 101.555 118.584 102.811C118.132 105.406 117.515 108.953 118.415 111.352C118.617 111.891 118.833 112.292 119.091 112.613C119.666 113.342 120.541 114.138 122.234 113.831Z" fill="#463C37"/>
<path d="M240.518 51.4677C240.208 52.1049 239.975 52.6575 239.769 53.1457C239.67 53.3795 239.579 53.5955 239.49 53.7956L239.071 54.7427L239.222 53.718C239.342 52.8996 239.581 51.8234 239.859 51.483L239.957 51.3892C240.084 51.2698 240.128 51.2313 240.158 51.213L240.194 51.1916L240.236 51.1929C240.275 51.1942 240.332 51.2058 240.464 51.2849L240.574 51.3515L240.518 51.4677ZM227.167 61.6557C227.169 61.7635 227.169 61.8709 227.167 61.977C226.915 66.0021 225.872 69.8321 223.977 73.6923C223.541 74.5897 223.025 75.2217 222.597 75.3822C222.358 75.4721 222.185 75.3502 222.053 74.9981C221.761 74.2212 221.868 72.7466 222.339 71.0533C223.25 67.7033 224.788 64.5142 226.912 61.5758L227.159 61.2335L227.167 61.6557ZM220.603 54.8106C221.217 49.3471 222.523 44.0366 224.486 39.0266C224.77 38.339 225.17 37.6633 225.556 37.0097L225.772 36.6434C225.811 36.5745 225.862 36.5038 225.92 36.4321L226.136 36.1658L226.17 36.507C226.187 36.6761 226.189 36.7986 226.178 36.9048C225.396 43.4611 222.933 49.9551 220.874 54.8804L220.493 55.7903L220.603 54.8106ZM262.09 44.5226C262.272 45.1284 262.518 45.9171 262.821 46.726C263.402 48.2722 264.312 50.0732 266.213 50.2724C266.892 50.3646 267.561 50.2814 268.263 50.018C271.704 48.7267 274.405 43.3663 276.064 39.0968C276.15 38.9078 276.159 38.683 276.091 38.5025C275.957 38.146 275.717 38.1504 275.539 38.2173C275.294 38.3091 275.146 38.6193 274.556 39.9178C273.447 42.3589 271.141 47.4357 268.14 48.5618C267.649 48.7462 267.117 48.8157 266.603 48.7618C266.119 48.6916 265.36 48.1095 264.468 45.7319C264.201 45.0193 263.964 44.2708 263.754 43.6102C263.586 43.0789 263.441 42.6197 263.308 42.2658L263.238 42.0794C262.735 40.9203 261.927 40.7406 261.339 40.9612C261.027 41.0782 260.762 41.2953 260.479 41.6651C259.651 42.7343 257.73 46.3504 256.328 48.9907L255.628 50.3058L255.744 49.5048C256.003 47.7303 256.308 45.2317 256.293 43.4075C256.287 43.2587 256.251 43.0019 256.169 42.7827C256.09 42.5706 255.937 42.4 255.749 42.3152L255.696 42.2874L255.648 42.282C255.47 42.228 255.194 42.1388 254.87 42.2607L254.788 42.2914C254.407 42.4341 254.104 42.8417 253.765 43.4101C253.267 44.2467 252.716 45.3866 252.078 46.707C250.168 50.6584 247.556 56.0638 244.264 57.3339C243.649 57.5647 243.061 57.2034 242.765 56.4146C242.588 55.9428 242.52 55.4607 242.558 54.9417C242.632 53.738 242.848 52.3819 243.021 51.292C243.177 50.3089 243.299 49.5385 243.29 49.1154C243.298 48.942 243.241 48.7893 243.185 48.6419C242.954 48.0244 242.445 47.7227 241.948 47.9092L241.733 48.008C241.559 48.1486 241.46 48.4497 241.277 49.1019L241.166 49.4886L241.013 49.4079C240.522 49.1483 240.016 49.1042 239.548 49.2798C238.86 49.5382 238.272 50.2659 237.75 51.506C237.726 51.5835 237.638 51.9223 237.541 52.3668L237.526 52.4379L237.458 52.4667C237.346 52.5144 237.221 52.5723 237.085 52.648C233.733 54.1835 231.252 55.5267 228.463 57.8648L228.321 57.9834L228.244 57.8145C227.99 57.2545 227.568 56.5643 226.552 56.1949C226.07 56.0544 225.579 56.0724 225.101 56.2519C223.894 56.705 222.787 58.0586 222.207 59.0792L219.716 63.9356L219.719 63.3461C219.719 63.2542 219.718 63.1636 219.717 63.0756C219.721 61.4489 220.104 59.9578 220.923 58.3818C224.192 51.8818 226.503 45.1436 227.793 38.3554C227.951 37.6792 228.034 37.0217 228.036 36.4484C228.077 36.054 228.012 35.6426 227.837 35.1769C227.442 34.1224 226.513 33.6302 225.58 33.9804C225.405 34.0461 225.254 34.1028 225.065 34.2332C223.417 35.409 222.01 38.1978 221.121 40.3295C218.728 46.3293 217.395 52.8818 217.048 60.36L217.046 60.4116L217.01 60.4495C216.898 60.5706 216.785 60.6918 216.678 60.8211C215.819 61.8451 214.53 64.2835 212.899 67.3706C209.789 73.2571 205.531 81.3168 202.418 82.485C202.275 82.5386 202.102 82.5764 201.888 82.6006C201.036 82.6978 200.407 82.3415 200.019 81.542L199.921 81.2825C199.083 79.0502 200.058 75.1915 200.77 72.3742C201.209 70.6367 201.453 69.6318 201.366 69.1473C201.335 68.7683 201.228 68.4827 201.133 68.2305C200.529 66.6196 199.017 66.5006 197.646 66.5152L197.48 66.5169L197.506 66.3526C197.563 65.9841 197.529 65.6417 197.403 65.3059C197.031 64.3134 195.94 64.0466 195.099 64.362C194.665 64.5249 194.332 64.8419 194.134 65.2796C193.738 66.3821 193.69 67.5569 194.011 68.4121C194.192 68.8927 194.496 69.2504 194.869 69.42L194.94 69.4435C195.48 69.5742 196.159 69.5026 196.816 69.4338C197.673 69.3441 198.559 69.2512 198.725 69.7218C198.737 69.7921 198.742 69.8427 198.757 69.8989C198.804 70.5201 198.615 71.6068 198.395 72.8651C197.944 75.4546 197.327 79.0011 198.228 81.4002C198.43 81.9403 198.645 82.3412 198.904 82.6617C199.479 83.3909 200.355 84.1866 202.047 83.8791C202.277 83.8525 202.475 83.7782 202.685 83.6992C206.18 82.3876 209.871 75.4039 213.127 69.2429C214.41 66.8146 215.622 64.5206 216.72 62.7757L216.986 62.3525L216.981 62.8527C216.953 65.1286 216.959 67.4802 217 69.8416C216.979 70.1151 217.056 70.3207 217.124 70.5024C217.362 71.1371 217.992 71.4681 218.558 71.2559C218.955 71.1067 219.246 70.7443 219.422 70.1798C220.582 66.3039 222.172 60.9935 225.08 58.0593L225.109 58.0266C225.21 57.8979 225.342 57.805 225.518 57.7387C226.01 57.5542 226.4 58.0626 226.545 58.2894L226.65 58.5609C226.727 58.7669 226.823 59.023 226.862 59.2083L226.874 59.2694L226.838 59.3199C226.822 59.3414 226.807 59.3629 226.797 59.3804C223.839 63.4268 222.556 65.6337 220.772 70.7437C220.104 72.707 219.986 74.3722 220.432 75.5592C220.937 76.9052 222.145 77.5242 223.37 77.0647C223.828 76.8927 224.201 76.6286 224.449 76.3006C224.98 75.7284 225.355 75.1747 225.545 74.6901C227.786 69.6004 229.22 65.842 228.785 60.1503C228.731 59.6045 228.907 59.3201 229.297 58.9247C231.121 57.1546 233.001 55.9327 235.263 54.6421C235.824 54.3311 236.263 54.1078 236.727 53.871L237.311 53.5719L237.272 53.8422C237.107 54.9765 237.083 55.8603 237.2 56.4696L237.293 56.7324C237.534 57.375 238.239 57.6659 238.931 57.406C239.145 57.3257 239.448 57.1706 239.673 56.8877C240.08 56.3685 240.392 55.7701 240.738 55.0321L240.948 54.5809L241.005 55.0756C241.076 55.6917 241.208 56.2689 241.386 56.7438C242.008 58.4013 243.199 58.9538 244.829 58.342L245.076 58.247C248.748 56.4502 251.445 50.8738 253.612 46.393L254.429 44.7095L254.299 45.6063C254.212 46.2075 254.105 46.8132 253.991 47.4545L253.982 47.506C253.673 49.2454 253.352 51.0448 253.413 52.8767C253.399 53.1526 253.275 53.536 253.156 53.9067C252.94 54.5736 252.72 55.2553 252.908 55.7575C253.017 56.0462 253.275 56.2477 253.616 56.3104C253.96 56.3731 254.245 56.3597 254.486 56.269C255.268 55.9755 255.689 55.102 256.096 54.2569C256.19 54.0614 256.284 53.867 256.386 53.6725L256.435 53.5734C258.032 50.3531 259.67 47.05 261.329 43.7698C261.366 43.6891 261.416 43.6014 261.495 43.4811L261.657 43.2327L261.747 43.5153C261.852 43.8442 261.966 44.194 262.09 44.5226Z" fill="#463C37"/>
<path d="M48.6712 116.376C48.2835 116.375 47.9389 116.438 47.5824 116.572C46.5147 116.972 46.2239 117.897 46.4889 118.603C46.7439 119.283 47.4054 119.598 48.0612 119.352C48.199 119.3 48.3103 119.22 48.4281 119.137L48.5323 119.063C49.9004 118.007 49.884 117.259 49.7522 116.908C49.6192 116.554 49.2152 116.355 48.6712 116.376Z" fill="#463C37"/>
<path d="M37.4694 103.597L37.4693 103.597C38.3586 98.2568 39.1255 92.7259 39.7483 87.1576C39.8225 86.7868 39.9716 86.6636 40.1736 86.5878L42.3426 85.8205C43.843 85.2575 46.2279 84.4087 49.6301 83.2268C52.8235 82.1188 55.8672 81.1042 59.5145 79.8931C63.4329 78.5923 65.5045 78.0981 66.3904 77.9193L66.5167 77.8945C67.2635 77.7478 68.0131 77.6006 68.8061 77.4376L68.9865 77.398C69.8275 77.2119 70.6932 77.0206 71.5813 76.8972C71.7519 76.8995 71.8725 76.8542 72.0006 76.8061C72.6837 76.5498 72.7794 76.065 72.6413 75.697C72.4616 75.2182 71.9723 74.7505 70.6616 75.2424C69.8394 75.5509 69.2452 75.7739 68.9965 75.8231C62.6073 77.2647 53.7064 79.9558 42.5449 83.82L40.4346 84.5175C40.4333 84.518 40.4324 84.5184 40.4315 84.5187C40.307 84.5654 40.1974 84.5985 40.1023 84.6181L39.9972 84.639L39.9482 84.5434C39.8098 84.2695 39.5621 84.0456 39.2332 83.8959C38.8926 83.7415 38.5261 83.7294 38.1731 83.8619C37.7659 84.0147 37.4332 84.355 37.2102 84.8458C37.1306 85.0218 37.0484 85.2028 37.0343 85.3914L37.0263 85.429C36.9487 85.6449 36.7568 85.8038 36.4223 85.9294L30.9719 87.8336C28.1744 88.8353 25.3096 89.8114 22.7816 90.6723L20.572 91.4543C14.7442 93.6413 9.09947 96.4284 3.79721 99.7368L2.04251 100.983C1.44713 101.578 1.47232 102.111 1.59999 102.451C1.87384 103.181 2.4371 103.49 3.14532 103.299C3.37088 103.266 3.58681 103.185 3.83698 103.091C4.93956 102.677 6.16153 102.06 7.46962 101.255L9.07049 100.371C17.1958 95.9232 26.3865 91.7632 36.3881 88.0084L36.6044 87.9267L36.5777 88.1567C36.564 88.2738 36.5514 88.3809 36.5481 88.3988L36.5075 88.538C33.6709 106.852 31.9311 128.108 31.3419 151.696C31.2163 155.68 31.3349 159.783 31.6948 163.893C31.6857 163.988 31.6913 164.051 31.6967 164.112L31.695 164.194C31.7022 164.377 31.7489 164.502 31.7982 164.633C31.8987 164.901 32.104 165.042 32.3765 165.031L32.4297 165.029L32.6032 164.964C32.9476 164.835 32.9638 164.439 32.934 164.069L32.8983 163.853C32.7648 161.758 32.7126 159.606 32.7429 157.455C33.2058 138.201 34.7959 120.081 37.4694 103.597Z" fill="#463C37"/>
</svg>
