<svg width="17" height="16" viewBox="0 0 17 16" fill="none" xmlns="http://www.w3.org/2000/svg">
<path fill-rule="evenodd" clip-rule="evenodd" d="M0.132356 0.125233C0.00813134 0.242604 6.13662e-05 0.333539 6.13662e-05 1.61825C6.13662e-05 3.30289 -0.0222304 3.25514 0.782916 3.29914L1.32301 3.3287V8V12.6713L0.782916 12.7009C-0.0222304 12.7449 6.13662e-05 12.6971 6.13662e-05 14.3817C6.13662e-05 15.6665 0.00813134 15.7574 0.132356 15.8748C0.256978 15.9925 0.352825 15.9998 1.78227 15.9998C3.58591 15.9998 3.50587 16.0353 3.50587 15.2358V14.7498H8.5H13.4941V15.2358C13.4941 16.0353 13.4141 15.9998 15.2177 15.9998C16.6472 15.9998 16.743 15.9925 16.8676 15.8748C16.9919 15.7574 16.9999 15.6665 16.9999 14.3817C16.9999 12.6971 17.0222 12.7449 16.2171 12.7009L15.677 12.6713V8V3.3287L16.2171 3.29914C17.0222 3.25514 16.9999 3.30289 16.9999 1.61825C16.9999 0.333539 16.9919 0.242604 16.8676 0.125233C16.743 0.00748599 16.6472 0.000236188 15.2177 0.000236188C13.4141 0.000236188 13.4941 -0.0352628 13.4941 0.764151V1.2502H8.5H3.50587V0.764151C3.50587 -0.0352628 3.58591 0.000236188 1.78227 0.000236188C0.352825 0.000236188 0.256978 0.00748599 0.132356 0.125233ZM2.64596 1.62519V2.43766H1.75297H0.859977V1.62519V0.812712H1.75297H2.64596V1.62519ZM16.14 1.62519V2.43766H15.247H14.354V1.62519V0.812712H15.247H16.14V1.62519ZM13.4941 2.52447C13.4941 3.17264 13.5766 3.25789 14.243 3.29826L14.7509 3.32908V8V12.6709L14.243 12.7017C13.5766 12.7421 13.4941 12.8274 13.4941 13.4755V13.9373H8.5H3.50587V13.4755C3.50587 12.8274 3.42339 12.7421 2.75695 12.7017L2.24907 12.6709V8V3.32908L2.75695 3.29826C3.42339 3.25789 3.50587 3.17264 3.50587 2.52447V2.06268H8.5H13.4941V2.52447ZM2.64596 14.3748V15.1873H1.75297H0.859977V14.3748V13.5623H1.75297H2.64596V14.3748ZM16.14 14.3748V15.1873H15.247H14.354V14.3748V13.5623H15.247H16.14V14.3748Z" fill="currentColor"/>
</svg>
