<svg width="16" height="16" viewBox="0 0 16 16" fill="none" xmlns="http://www.w3.org/2000/svg">
<path fill-rule="evenodd" clip-rule="evenodd" d="M3.62219 0.156838C3.48669 0.292514 3.46875 0.365142 3.46875 0.777554V1.24456L2.45312 1.26641C1.49756 1.28701 1.41887 1.29816 1.1225 1.45406C0.73975 1.65541 0.317375 2.10132 0.135062 2.49651L0 2.78928V8.64332V14.4974L0.135062 14.7901C0.317125 15.1848 0.73925 15.6308 1.1225 15.8334L1.4375 16H8H14.5625L14.8775 15.8334C15.2608 15.6308 15.6829 15.1848 15.8649 14.7901L16 14.4974V8.64332V2.78928L15.8649 2.49651C15.6826 2.10132 15.2603 1.65541 14.8775 1.45406C14.5811 1.29816 14.5024 1.28701 13.5469 1.26641L12.5312 1.24456V0.777554C12.5312 0.365142 12.5133 0.292514 12.3778 0.156838C12.1691 -0.0522794 11.8309 -0.0522794 11.6222 0.156838C11.4864 0.292827 11.4688 0.364829 11.4688 0.782939V1.25533H8H4.53125V0.782939C4.53125 0.364829 4.51362 0.292827 4.37781 0.156838C4.27194 0.0507141 4.15494 0.00313039 4 0.00313039C3.84506 0.00313039 3.72806 0.0507141 3.62219 0.156838ZM3.46875 2.60427C3.46875 3.03884 3.64731 3.25885 4 3.25885C4.35269 3.25885 4.53125 3.03884 4.53125 2.60427V2.25709H8H11.4688V2.60427C11.4688 3.03884 11.6473 3.25885 12 3.25885C12.3527 3.25885 12.5312 3.03884 12.5312 2.60427V2.25709L13.2344 2.25747C14.04 2.25784 14.3215 2.31895 14.6003 2.55399C14.9013 2.80769 14.9688 3.03941 14.9688 3.82034V4.51105H8H1.03125V3.82034C1.03125 3.06983 1.09644 2.82472 1.361 2.58047C1.62513 2.33667 1.94144 2.26279 2.73438 2.25985L3.46875 2.25709V2.60427ZM14.9688 9.83491C14.9688 13.3436 14.9527 14.1955 14.8835 14.3614C14.7748 14.622 14.4679 14.8813 14.1699 14.9642C13.8495 15.0533 2.1505 15.0533 1.83006 14.9642C1.53212 14.8813 1.22519 14.622 1.1165 14.3614C1.04731 14.1955 1.03125 13.3436 1.03125 9.83491V5.51282H8H14.9688V9.83491Z" fill="currentColor"/>
</svg>
