<svg width="27" height="27" viewBox="0 0 27 27" fill="none" xmlns="http://www.w3.org/2000/svg">
<path fill-rule="evenodd" clip-rule="evenodd" d="M8.11591 0.135429C4.31427 0.982895 1.33631 3.79309 0.242629 7.56509C0.0309787 8.29482 0 8.63881 0 10.2563C0 11.8737 0.0309787 12.2177 0.242629 12.9475C1.39785 16.9314 4.59583 19.7847 8.66917 20.4658L9.44204 20.595L9.47026 23.6056C9.49477 26.2206 9.52129 26.6414 9.67237 26.8081C9.83744 26.9902 10.2729 27 18.2475 27C26.2519 27 26.6571 26.9909 26.8244 26.8062C26.9847 26.6293 27 25.8818 27 18.2388C27 10.2908 26.9902 9.85644 26.8079 9.69154C26.641 9.54064 26.2197 9.51414 23.6018 9.48966L20.5879 9.46147L20.4586 8.68946C20.0731 6.38921 19.0616 4.45097 17.4228 2.87239C16.1223 1.61979 14.6896 0.784619 12.989 0.287924C11.9554 -0.0139929 9.17618 -0.10089 8.11591 0.135429ZM12.316 1.78013C14.9211 2.44331 16.9919 4.14248 18.1369 6.55665C18.5074 7.33767 18.9371 8.793 18.9371 9.26648V9.51446H14.4101C10.3466 9.51446 9.86322 9.53237 9.68913 9.68985C9.50686 9.85453 9.49509 10.1415 9.49509 14.4056V18.9461H9.24684C8.77283 18.9461 7.31589 18.5168 6.534 18.1467C4.61896 17.2404 3.24297 15.8629 2.33017 13.9382C1.24465 11.6495 1.24783 8.85626 2.33855 6.55665C3.47435 4.16198 5.5376 2.45814 8.11591 1.78564C9.23909 1.49273 11.177 1.49019 12.316 1.78013ZM16.1005 12.7744L17.8764 14.5507L17.5075 15.0981C17.3044 15.3991 17.0842 15.6789 17.018 15.7198C16.9039 15.7902 12.2534 11.2599 12.2534 11.0785C12.2534 11.0342 12.7194 10.9981 13.289 10.9981H14.3245L16.1005 12.7744ZM18.8967 11.5083C18.8595 11.789 18.7697 12.2196 18.6974 12.4654L18.5658 12.9123L17.6132 11.9551L16.6606 10.9981H17.8126H18.9645L18.8967 11.5083ZM25.4617 18.2572V25.4634H18.2475H11.0334V23.0293V20.5951L11.8063 20.4658C14.1093 20.0807 16.0495 19.0704 17.6298 17.4334C19.2017 15.8049 20.1937 13.8073 20.4832 11.6869C20.523 11.3955 20.5767 11.1204 20.6025 11.0755C20.6284 11.0308 21.7323 11.007 23.0557 11.0226L25.4617 11.0511V18.2572ZM13.4615 14.5892C14.8543 15.9816 15.752 16.9567 15.7073 17.029C15.6664 17.0951 15.3863 17.3151 15.0849 17.518L14.5369 17.8865L12.7586 16.1125L10.9804 14.3386V13.3042C10.9804 12.7352 11.0165 12.2698 11.0609 12.2698C11.1051 12.2698 12.1854 13.3135 13.4615 14.5892ZM12.4493 18.7066C12.2033 18.7788 11.7721 18.8685 11.4912 18.9057L10.9804 18.9734V17.8227V16.6721L11.9385 17.6236L12.8967 18.5751L12.4493 18.7066Z" fill="currentColor"/>
</svg>
