<svg width="14" height="13" viewBox="0 0 14 13" fill="none" xmlns="http://www.w3.org/2000/svg">
<path d="M11.4275 12.7049C12.412 12.2132 13.1268 11.2902 13.3487 10.2242C13.4671 9.65528 13.4671 3.36942 13.3487 2.80056C13.1269 1.73469 12.412 0.811561 11.4276 0.319837M11.4275 12.7049L11.3828 12.6154C12.3402 12.1373 13.0352 11.2395 13.2508 10.2038L13.2508 10.2038C13.2637 10.1419 13.2764 9.98995 13.2877 9.7603C13.2987 9.53415 13.3079 9.24072 13.3153 8.90204C13.3301 8.2248 13.3375 7.36873 13.3375 6.51235C13.3375 5.65598 13.3301 4.79991 13.3153 4.12267C13.3079 3.78398 13.2987 3.49056 13.2877 3.26441C13.2764 3.03475 13.2637 2.88282 13.2508 2.82094L13.2508 2.82093C13.0353 1.7854 12.3402 0.887519 11.3829 0.409296L11.4276 0.319837M11.4275 12.7049L10.8366 13M11.4275 12.7049L11.3828 12.6154L10.813 12.9M11.4276 0.319837L11.3829 0.409294L10.8131 0.124593M11.4276 0.319837L10.8369 0.0247083M10.8131 0.124593L7.05794 0.106149C5.34247 0.0977305 4.39087 0.0962994 3.82375 0.112518C3.25655 0.128739 3.0848 0.162581 2.92318 0.219655M10.8131 0.124593L10.7922 0.114165L10.8369 0.0247083M10.8131 0.124593L10.8364 0.124707L10.8369 0.0247083M10.8369 0.0247083L7.05843 0.00614974C3.629 -0.0106788 3.24395 0.000330429 2.88987 0.125365C1.67993 0.552763 0.782825 1.56806 0.526331 2.80056C0.40789 3.36942 0.40789 9.65528 0.526331 10.2242C0.748195 11.2902 1.46305 12.2132 2.44754 12.7049M2.44754 12.7049L3.03843 13M2.44754 12.7049L2.49222 12.6154L3.06201 12.9M2.44754 12.7049L2.49222 12.6154C1.53476 12.1373 0.839785 11.2395 0.624233 10.2038L0.624232 10.2038C0.611348 10.1419 0.598561 9.98995 0.587349 9.7603C0.576307 9.53415 0.567078 9.24072 0.559684 8.90204C0.544899 8.2248 0.5375 7.36873 0.5375 6.51235C0.5375 5.65598 0.544899 4.79991 0.559684 4.12267C0.567078 3.78398 0.576307 3.49056 0.587349 3.26441C0.598561 3.03475 0.611348 2.88282 0.624232 2.82094L0.624234 2.82093C0.873433 1.62348 1.74542 0.635683 2.92318 0.219655M3.03843 13H6.9375H10.8366M3.03843 13L3.08311 12.9105L3.06201 12.9M3.03843 13V12.9H3.06201M10.8366 13L10.7919 12.9105L10.813 12.9M10.8366 13V12.9H10.813M10.813 12.9H6.9375H3.06201M2.92318 0.219655L2.88987 0.12538L2.92317 0.219659C2.92317 0.219657 2.92317 0.219656 2.92318 0.219655ZM10.9287 11.6516L10.9287 11.6516L10.4094 11.91L10.3883 11.9204H10.3648H6.9375H3.51017H3.48667L3.46563 11.91L2.94634 11.6516L2.94633 11.6516C2.33744 11.3487 1.97556 10.9498 1.73839 10.319M10.9287 11.6516L1.83199 2.74087L1.73839 2.70566C1.73839 2.70567 1.73839 2.70567 1.73839 2.70567C1.66479 2.90136 1.62728 3.07511 1.60731 3.58648C1.58742 4.09582 1.58468 4.95055 1.58468 6.51235C1.58468 8.07416 1.58742 8.92888 1.60731 9.43822C1.62728 9.94959 1.66479 10.1234 1.73839 10.319M10.9287 11.6516C11.5376 11.3487 11.8994 10.9498 12.1366 10.319C12.2102 10.1234 12.2477 9.9496 12.2677 9.43822C12.2876 8.92888 12.2903 8.07416 12.2903 6.51235C12.2903 4.95055 12.2876 4.09582 12.2677 3.58648C12.2477 3.0751 12.2102 2.90135 12.1366 2.70566L10.9287 11.6516ZM1.73839 10.319L1.83199 10.2838L1.73839 10.319C1.73839 10.319 1.73839 10.319 1.73839 10.319ZM9.96735 2.74313L9.96738 2.7431C10.0158 2.70459 10.0787 2.66815 10.1405 2.64155C10.2046 2.61393 10.2562 2.60181 10.2837 2.60181C10.3113 2.60181 10.3629 2.61393 10.427 2.64155C10.4888 2.66815 10.5517 2.70459 10.6001 2.7431L10.6001 2.74313C10.6722 2.80033 10.7101 2.8463 10.7327 2.89758C10.7559 2.9505 10.7674 3.01936 10.7674 3.13091C10.7674 3.24247 10.7559 3.31133 10.7327 3.36425C10.7101 3.41553 10.6722 3.46149 10.6001 3.5187L10.6001 3.51873C10.5517 3.55724 10.4888 3.59368 10.427 3.62028C10.3629 3.6479 10.3113 3.66002 10.2837 3.66002C10.2562 3.66002 10.2046 3.6479 10.1405 3.62028C10.0787 3.59368 10.0158 3.55724 9.96738 3.51873L9.96735 3.5187C9.89533 3.46149 9.85739 3.41553 9.83483 3.36425C9.81156 3.31133 9.8001 3.24247 9.8001 3.13091C9.8001 3.01936 9.81156 2.9505 9.83483 2.89758C9.85739 2.8463 9.89533 2.80033 9.96735 2.74313ZM4.36663 5.28071L4.27669 5.237L4.36663 5.28071C4.73941 4.51362 5.47589 3.90692 6.281 3.70137C6.35116 3.68349 6.47966 3.66861 6.63443 3.66069C6.78717 3.65287 6.95841 3.65216 7.11064 3.66037C8.13802 3.71575 9.04505 4.32728 9.50836 5.28071L9.59831 5.237L9.50837 5.28071C9.60586 5.48133 9.65548 5.60353 9.68301 5.7642C9.71128 5.92921 9.71682 6.13782 9.71682 6.51235C9.71682 6.88688 9.71128 7.0955 9.68301 7.26051C9.65548 7.42118 9.60587 7.54337 9.50837 7.744L9.59831 7.78771L9.50836 7.744C9.21744 8.34269 8.72559 8.82977 8.11809 9.12012L8.16121 9.21035L8.11809 9.12013C7.88529 9.23141 7.7451 9.28924 7.5886 9.32123C7.43046 9.35355 7.25088 9.3605 6.9375 9.3605C6.62412 9.3605 6.44454 9.35355 6.2864 9.32123C6.1299 9.28924 5.98971 9.23141 5.75691 9.12013L5.71379 9.21035L5.75691 9.12012C5.14941 8.82977 4.65756 8.34269 4.36663 7.744L4.36663 7.744C4.26913 7.54337 4.21952 7.42118 4.19199 7.26051C4.16372 7.0955 4.15817 6.88688 4.15817 6.51235C4.15817 6.13782 4.16372 5.92921 4.19199 5.7642C4.21952 5.60353 4.26913 5.48133 4.36663 5.28071ZM7.47041 4.76351L7.47039 4.76351C6.26889 4.42569 5.14881 5.27343 5.14881 6.52108C5.14881 7.99551 6.83307 8.87018 7.99093 7.97893L7.99093 7.97893C8.94883 7.24153 8.99167 5.86978 8.07381 5.10467L8.0738 5.10467C7.90488 4.96387 7.63764 4.81056 7.47041 4.76351Z" fill="currentColor" stroke="#28221F" stroke-width="0.2"/>
</svg>
