<svg width="13" height="18" viewBox="0 0 13 18" fill="none" xmlns="http://www.w3.org/2000/svg">
<path fill-rule="evenodd" clip-rule="evenodd" d="M5.37589 0.0968973C2.68224 0.573909 0.580331 2.65275 0.10716 5.30776C0.048265 5.63852 0 6.10646 0 6.3476C0 7.26325 0.34547 8.59948 0.772243 9.33464C0.969829 9.67495 6.37445 17.9075 6.46086 17.9998C6.50539 18.0473 11.7083 10.2296 12.2278 9.33464C12.6545 8.59941 13 7.26318 13 6.3476C13 5.27642 12.6072 3.94631 12.0175 3.02047C10.6142 0.8173 7.94436 -0.357976 5.37589 0.0968973ZM8.00829 1.32327C9.79676 1.87738 11.0854 3.14663 11.6466 4.9068C11.7897 5.3557 11.8138 5.57477 11.8089 6.38274C11.8039 7.21848 11.7801 7.39855 11.6094 7.89383C11.5029 8.20308 11.344 8.58704 11.2562 8.747C11.1685 8.90704 10.0639 10.6047 8.8015 12.5197C6.85481 15.4727 6.49361 15.9835 6.42272 15.8835C5.98345 15.2636 1.82668 8.89994 1.69517 8.646C1.31602 7.91372 1.18659 7.32897 1.18659 6.3476C1.18659 5.58714 1.21467 5.34593 1.35423 4.90926C1.96832 2.98687 3.42424 1.66344 5.42265 1.2111C6.05721 1.06751 7.3659 1.1243 8.00829 1.32327ZM5.68157 3.25641C4.15095 3.67705 3.12452 5.08778 3.25345 6.59366C3.36089 7.84948 4.25208 8.96699 5.47559 9.38011C6.03092 9.56756 7.08371 9.54872 7.62942 9.34146C8.52391 9.00178 9.28717 8.23035 9.59989 7.35005C9.77873 6.84661 9.77873 5.84859 9.59989 5.34515C9.28631 4.46247 8.5168 3.68633 7.62942 3.35762C7.09204 3.15857 6.20517 3.11254 5.68157 3.25641ZM7.19202 4.39443C7.74721 4.56768 8.32812 5.14731 8.50595 5.70543C8.82405 6.70366 8.3753 7.72136 7.39779 8.21889C6.93611 8.45385 6.06389 8.45385 5.60221 8.21889C4.6247 7.72136 4.17594 6.70366 4.49405 5.70543C4.59568 5.38627 4.71527 5.20543 5.02396 4.9037C5.63582 4.30567 6.36124 4.1353 7.19202 4.39443Z" fill="currentColor"/>
</svg>
