<svg width="13" height="12" viewBox="0 0 13 12" fill="none" xmlns="http://www.w3.org/2000/svg">
<path fill-rule="evenodd" clip-rule="evenodd" d="M11.4641 7.94693C11.1989 7.73409 10.8884 7.58428 10.5562 7.50892C10.2241 7.43356 9.87902 7.43463 9.54734 7.51204C9.049 7.71804 8.72698 8.49626 8.40497 8.88536C8.33707 8.97864 8.2373 9.04406 8.12437 9.06934C8.01145 9.09463 7.89313 9.07804 7.79162 9.02269C5.96715 8.31159 4.43786 7.00754 3.45215 5.32236C3.36808 5.2172 3.32829 5.08368 3.34116 4.94991C3.35403 4.81614 3.41856 4.69256 3.52115 4.60519C3.8803 4.25138 4.14399 3.81316 4.28784 3.33105C4.31979 2.79928 4.19736 2.26959 3.93517 1.80514C3.73247 1.15401 3.34671 0.574213 2.82346 0.134275C2.55359 0.0134879 2.25436 -0.0270113 1.96187 0.0176636C1.66938 0.0623385 1.39613 0.190279 1.17508 0.38605C0.791326 0.715526 0.486729 1.12647 0.283717 1.58861C0.0807053 2.05075 -0.0155492 2.55232 0.00204188 3.05639C0.00322631 3.33945 0.0392743 3.62131 0.109379 3.89564C0.28741 4.55476 0.561195 5.18448 0.922071 5.76488C1.18244 6.20947 1.46652 6.63988 1.7731 7.05427C2.76945 8.41537 4.02188 9.57101 5.46088 10.4571C6.18299 10.9073 6.95475 11.2734 7.76095 11.5481C8.59842 11.9258 9.52307 12.0709 10.4367 11.9677C10.9573 11.8893 11.4505 11.6848 11.8729 11.3721C12.2954 11.0595 12.6342 10.6483 12.8594 10.1748C12.9918 9.8887 13.032 9.56889 12.9745 9.25921C12.8364 8.62596 11.9854 8.25211 11.4641 7.94693Z" fill="currentColor"/>
</svg>
