<svg width="17" height="17" viewBox="0 0 17 17" fill="none" xmlns="http://www.w3.org/2000/svg">
<path fill-rule="evenodd" clip-rule="evenodd" d="M1.76315 1.21332C0.353839 2.59854 0.169691 2.87175 0.0386378 3.77213C-0.105044 4.75924 0.147011 5.82132 0.878646 7.31129C2.27612 10.1575 5.24141 13.4243 8.15499 15.3275C10.0561 16.5693 11.9076 17.1718 13.164 16.9574C14.0983 16.7979 14.3614 16.6207 15.7514 15.2145L17 13.9512L14.7732 11.7239L12.5464 9.4965L11.3183 10.7423L10.0902 11.9881L9.68464 11.7081C8.2785 10.7376 6.59796 9.08561 5.31738 7.41519L4.94023 6.92319L6.18351 5.6767L7.42686 4.43027L5.21218 2.21513L2.99751 0L1.76315 1.21332ZM4.77241 5.56691L3.60503 6.73731L3.92215 7.24686C4.73796 8.55765 6.62057 10.6434 7.98969 11.7534C8.48725 12.1567 9.80287 13.0819 10.0978 13.2359C10.2481 13.3143 10.309 13.2646 11.404 12.1693L12.5526 11.0204L14.0229 12.4929L15.4933 13.9654L14.7004 14.7653C14.2325 15.2374 13.7721 15.6375 13.577 15.7415C13.2768 15.9017 13.1825 15.9174 12.5521 15.9129C11.7691 15.9072 11.1734 15.7482 10.207 15.2873C7.17725 13.8423 3.45897 10.1221 1.83939 6.91551C1.13044 5.51175 0.903838 4.40762 1.15265 3.56864C1.24575 3.2547 1.3616 3.10703 2.1251 2.32929L2.99182 1.44634L4.4658 2.92142L5.93979 4.3965L4.77241 5.56691Z" fill="currentColor"/>
</svg>
