<svg width="13" height="13" viewBox="0 0 13 13" fill="none" xmlns="http://www.w3.org/2000/svg">
<path fill-rule="evenodd" clip-rule="evenodd" d="M5.74294 0.0600208C3.63199 0.531901 2.33908 2.61387 2.86513 4.69406C3.04355 5.3995 3.64244 6.34144 4.12035 6.66827C4.22129 6.73728 4.30396 6.80719 4.30416 6.82371C4.30436 6.84022 4.15123 6.91419 3.96384 6.98816C3.51333 7.16594 2.86327 7.55833 2.43058 7.91368C1.01593 9.07545 0.171248 10.7036 0.0349258 12.5314L0 13H0.529945H1.05989L1.09406 12.5454C1.1899 11.2715 1.68896 10.1741 2.61177 9.20844C3.39049 8.39357 4.31138 7.87776 5.44011 7.62419C5.83944 7.53452 7.16056 7.53452 7.55989 7.62419C8.68862 7.87776 9.60952 8.39357 10.3882 9.20844C11.311 10.1741 11.8101 11.2715 11.9059 12.5454L11.9401 13H12.4701H13L12.9651 12.5314C12.8288 10.7036 11.9841 9.07545 10.5694 7.91368C10.1367 7.55833 9.48667 7.16594 9.03617 6.98816C8.84877 6.91419 8.69599 6.84022 8.69655 6.82371C8.69715 6.80719 8.78977 6.72826 8.90237 6.64831C9.38401 6.30613 9.94631 5.41724 10.1404 4.69118C10.2629 4.23287 10.2633 3.26181 10.1412 2.81663C9.78162 1.50571 8.74379 0.457375 7.45895 0.107189C7.01607 -0.0134916 6.17517 -0.0365946 5.74294 0.0600208ZM7.12619 1.12142C7.59648 1.23268 8.01938 1.47662 8.39402 1.85265C9.47037 2.93315 9.47037 4.57465 8.39402 5.65515C7.54066 6.51177 6.30135 6.70551 5.24292 6.14786C4.849 5.94029 4.32193 5.41121 4.11515 5.01578C3.55961 3.95331 3.75262 2.70927 4.60598 1.85265C5.29016 1.1659 6.19929 0.9021 7.12619 1.12142Z" fill="currentColor"/>
</svg>
