<svg width="19" height="11" viewBox="0 0 19 11" fill="none" xmlns="http://www.w3.org/2000/svg">
<path d="M0.146418 0.202165L0.146416 0.202155L0.124369 0.101855H2.50023H4.91437L5.02314 0.825009C5.20744 2.05077 5.67329 3.19359 6.24451 3.77946C6.24451 3.77946 6.24452 3.77947 6.24452 3.77947L6.43462 3.97453L6.61008 4.15456L6.60623 3.90321L6.58592 2.57671L6.58592 2.5767L6.56553 1.25029L6.56417 1.16164L6.476 1.15237L6.23599 1.12713L6.23596 1.12713L6.08545 1.11125V0.601597V0.101855H8.53244H10.9803L10.9991 2.15158L11.0187 4.30048L11.0208 4.5254L11.1864 4.37319L11.4235 4.1553C11.7183 3.88433 12.0264 3.40303 12.3083 2.81105C12.5914 2.21646 12.8524 1.50094 13.0495 0.753128L13.2107 0.141624L16.0615 0.121126L18.8088 0.101297L18.0835 1.28597L18.1688 1.33819L18.0835 1.28598C17.6328 2.02229 16.7855 3.42023 16.2007 4.39262L15.1375 6.1604L15.1014 6.22035L15.1454 6.27477L16.5944 8.06883L18.4828 10.4071L18.7908 10.7887H15.9736H12.9871L12.1203 9.9653L11.2245 9.11436L11.056 8.95429L11.0556 9.1867L11.0548 9.69491C11.0542 10.1166 11.0382 10.3783 10.9988 10.5406C10.9794 10.6206 10.956 10.6683 10.9324 10.6976C10.9106 10.7246 10.8849 10.7408 10.8486 10.7508C9.97853 10.9892 8.54782 10.9384 7.44163 10.6238C6.76464 10.4312 5.67809 9.8854 5.05775 9.42525C2.75771 7.71901 1.13014 4.67969 0.146418 0.202165ZM4.19563 1.77501L4.19563 1.775L4.06903 1.19034L4.05196 1.1115H3.9713H2.76258C2.27263 1.1115 1.96557 1.11666 1.78067 1.13379C1.68992 1.1422 1.6183 1.15423 1.56717 1.17487C1.54093 1.18546 1.5125 1.20125 1.4902 1.22677C1.46561 1.25492 1.45386 1.28881 1.45386 1.32351C1.45386 1.36548 1.46657 1.4299 1.48361 1.50119C1.50159 1.57642 1.52739 1.67088 1.55906 1.77903C1.62246 1.99551 1.71039 2.27037 1.80902 2.56276C2.00609 3.14696 2.24749 3.80589 2.42357 4.2135L2.42357 4.2135C2.99789 5.54281 3.67314 6.60244 4.53886 7.52959C5.42983 8.48381 6.19585 9.01886 7.23821 9.41C7.62544 9.55533 8.13641 9.68054 8.60316 9.7586C8.83688 9.79769 9.06119 9.82525 9.25494 9.83747C9.44654 9.84956 9.6156 9.8472 9.73515 9.82271L9.73517 9.82271L9.99397 9.76965L10.0739 9.75326V9.67169V8.06253C10.0739 7.62078 10.0801 7.21986 10.0901 6.92993C10.0941 6.81541 10.0986 6.71894 10.1035 6.64442C10.1071 6.64765 10.1108 6.65094 10.1147 6.65431C10.2043 6.73359 10.3308 6.84859 10.4851 6.99094C10.7936 7.2755 11.2118 7.66804 11.6651 8.09978L13.3144 9.67079L13.3434 9.69838H13.3834H14.8546C15.2599 9.69838 15.6287 9.69341 15.8967 9.68538C16.0304 9.68137 16.1401 9.67657 16.2168 9.67115C16.2548 9.66847 16.2868 9.6655 16.3102 9.66209C16.3213 9.66048 16.3344 9.65823 16.3463 9.65473C16.3515 9.6532 16.3627 9.64972 16.3745 9.64278C16.3804 9.63931 16.3912 9.63229 16.4015 9.62026C16.4123 9.60755 16.4258 9.58503 16.4258 9.55427C16.4258 9.53478 16.4199 9.51991 16.4187 9.51685L16.4186 9.51657C16.4165 9.51119 16.4143 9.50687 16.413 9.50438C16.4103 9.49921 16.4073 9.49443 16.4051 9.4909C16.4004 9.48348 16.3942 9.47459 16.3874 9.465C16.3735 9.4455 16.3536 9.4187 16.3288 9.38589C16.279 9.32005 16.2074 9.22751 16.1197 9.11546C15.9444 8.89124 15.7039 8.58759 15.4427 8.26041C14.9206 7.60622 14.3152 6.85661 13.9831 6.45859L13.8514 6.30073L15.3019 3.92713C15.7111 3.25741 16.0878 2.6356 16.3649 2.17326C16.5035 1.94213 16.6173 1.75065 16.6979 1.61289C16.7382 1.54407 16.7704 1.48831 16.7933 1.44758C16.8047 1.42727 16.8141 1.41022 16.8212 1.39694C16.8267 1.38645 16.8346 1.37138 16.8389 1.35908L16.839 1.35898C16.8487 1.33135 16.8547 1.291 16.8343 1.24942C16.8154 1.21061 16.7822 1.18907 16.7556 1.17673C16.705 1.15323 16.6298 1.14123 16.5349 1.133C16.3385 1.11598 15.9953 1.1115 15.425 1.1115H14.0653H13.9905L13.9694 1.18321L13.798 1.76414C13.798 1.76415 13.798 1.76416 13.798 1.76416C13.7057 2.077 13.4483 2.72527 13.2263 3.20197C12.4435 4.88264 11.2811 5.86944 10.182 5.86944H10V3.58837V1.20731V1.10531L9.89805 1.10733L8.77169 1.12958L7.64532 1.15184L7.54811 1.15376L7.5473 1.25099L7.52773 3.60408L7.50934 5.81505L7.19273 5.69828L7.19272 5.69828C6.57334 5.46992 5.74894 4.84179 5.32026 4.26915C4.8704 3.66822 4.36104 2.53925 4.19563 1.77501Z" fill="currentColor" stroke="#28221F" stroke-width="0.2"/>
</svg>
