<svg width="14" height="14" viewBox="0 0 14 14" fill="none" xmlns="http://www.w3.org/2000/svg">
<path d="M0 13.9782L1.00528 10.2525C0.194547 8.80112 -0.0630311 7.1075 0.279812 5.48242C0.622655 3.85733 1.54292 2.40977 2.87174 1.40538C4.20056 0.400988 5.8488 -0.0928705 7.514 0.0144288C9.17921 0.121728 10.7497 0.822988 11.9372 1.98953C13.1248 3.15606 13.8498 4.70963 13.9791 6.36515C14.1085 8.02066 13.6336 9.66707 12.6415 11.0023C11.6494 12.3375 10.2068 13.2719 8.57827 13.634C6.94975 13.9962 5.24461 13.7618 3.77573 12.9739L0 13.9782ZM3.95779 11.5797L4.1913 11.7176C5.25524 12.3451 6.4979 12.6048 7.72564 12.4561C8.95337 12.3075 10.0972 11.7589 10.9789 10.8958C11.8606 10.0328 12.4306 8.9037 12.6002 7.68458C12.7697 6.46547 12.5292 5.2248 11.9161 4.15591C11.3031 3.08701 10.3519 2.24994 9.21089 1.77514C8.06985 1.30033 6.80302 1.21447 5.60781 1.53092C4.41261 1.84738 3.35617 2.54838 2.60314 3.52468C1.8501 4.50098 1.44276 5.69774 1.44459 6.92847C1.44359 7.94894 1.72721 8.94966 2.26386 9.81925L2.4103 10.0595L1.84829 12.139L3.95779 11.5797Z" fill="currentColor"/>
<path fill-rule="evenodd" clip-rule="evenodd" d="M9.62401 7.88504C9.48712 7.77517 9.32684 7.69784 9.15537 7.65893C8.98391 7.62003 8.80578 7.62058 8.63456 7.66055C8.37731 7.76688 8.21108 8.1686 8.04485 8.36946C8.0098 8.41761 7.95829 8.45138 7.9 8.46443C7.8417 8.47748 7.78063 8.46892 7.72823 8.44035C6.7864 8.07328 5.99696 7.40012 5.48812 6.53023C5.44472 6.47594 5.42417 6.40702 5.43082 6.33797C5.43746 6.26892 5.47077 6.20512 5.52374 6.16002C5.70913 5.97738 5.84526 5.75117 5.91952 5.50231C5.936 5.22781 5.87281 4.95438 5.73746 4.71463C5.63282 4.37851 5.43368 4.07922 5.16358 3.85212C5.02426 3.78977 4.86979 3.76886 4.71881 3.79192C4.56782 3.81499 4.42676 3.88103 4.31265 3.98209C4.11455 4.15216 3.95731 4.36429 3.85251 4.60285C3.74772 4.84141 3.69803 5.10032 3.70711 5.36052C3.70772 5.50664 3.72633 5.65214 3.76252 5.79375C3.85442 6.13399 3.99575 6.45905 4.18204 6.75865C4.31645 6.98815 4.4631 7.21034 4.62136 7.42424C5.13569 8.12685 5.78222 8.72339 6.52506 9.18077C6.89782 9.41319 7.29622 9.60216 7.7124 9.74396C8.14471 9.93897 8.62203 10.0138 9.09367 9.96057C9.36238 9.92009 9.61699 9.81452 9.83507 9.65313C10.0532 9.49174 10.228 9.27949 10.3443 9.03505C10.4127 8.88738 10.4334 8.7223 10.4037 8.56244C10.3325 8.23555 9.89314 8.04257 9.62401 7.88504Z" fill="currentColor"/>
</svg>
