<svg width="16" height="11" viewBox="0 0 16 11" fill="none" xmlns="http://www.w3.org/2000/svg">
<path fill-rule="evenodd" clip-rule="evenodd" d="M4.80008 0.0524372C3.3219 0.111618 2.35413 0.210966 1.88677 0.351551C1.1624 0.569439 0.590745 1.1193 0.358065 1.82187C-0.0447902 3.03859 -0.124762 6.56164 0.205544 8.54474C0.425998 9.86812 1.10645 10.5586 2.40247 10.7741C3.30412 10.924 5.23874 11.0012 8.06184 11C10.8641 10.9988 12.6854 10.9243 13.5965 10.7737C14.8916 10.5595 15.5729 9.86829 15.7934 8.54474C16.1259 6.54845 16.045 3.06087 15.6377 1.83042C15.3956 1.09928 14.8339 0.563676 14.0816 0.346679C13.8586 0.282328 13.3954 0.201994 13.0523 0.168066C11.3994 0.00490212 7.39113 -0.051308 4.80008 0.0524372ZM11.1185 0.998145C12.7066 1.06458 13.5855 1.1521 13.8945 1.27456C14.1518 1.37658 14.4913 1.67296 14.621 1.9088C15.0846 2.75225 15.1396 7.48115 14.7025 8.92389C14.661 9.06103 14.5133 9.26816 14.338 9.43507C13.8763 9.87489 13.4983 9.93027 10.2232 10.0379C7.13474 10.1393 3.28659 10.0174 2.26392 9.78564C1.88072 9.69877 1.40201 9.27238 1.2964 8.92389C0.859045 7.4802 0.914003 2.75278 1.37793 1.9088C1.50768 1.67279 1.84709 1.37658 2.10548 1.27397C2.79248 1.00106 7.64177 0.852629 11.1185 0.998145ZM5.97209 5.51296C5.97209 7.12053 5.99517 8.42691 6.02343 8.41598C6.25723 8.32578 11.3322 5.53441 11.3207 5.50238C11.3065 5.46293 6.22785 2.68362 6.05374 2.61998C5.98712 2.59568 5.97209 3.12837 5.97209 5.51296ZM8.43395 4.98657C8.93262 5.2577 9.34003 5.49406 9.33928 5.51183C9.33853 5.52954 8.95258 5.75105 8.48154 6.004C8.01057 6.25694 7.47777 6.54494 7.29768 6.64394L6.97018 6.82397V5.51052V4.19701L7.24871 4.34532C7.40192 4.4269 7.93527 4.71544 8.43395 4.98657Z" fill="currentColor"/>
</svg>
