<svg width="110" height="93" viewBox="0 0 110 93" fill="none" xmlns="http://www.w3.org/2000/svg">
<g opacity="0.5" clip-path="url(#clip0_75_172)">
<path d="M1.65561 95.9306L1.65563 95.9307C2.42988 98.9012 4.21453 101.156 6.85783 102.535C6.85789 102.535 6.85795 102.535 6.85802 102.535L9.18613 103.75H62.5H115.814L118.142 102.535C118.142 102.535 118.142 102.535 118.142 102.535C120.785 101.156 122.57 98.9012 123.344 95.9307L123.344 95.9306C123.371 95.8286 123.397 95.7313 123.421 95.6381C123.694 94.6021 123.835 94.0678 123.698 93.1879C123.536 92.1455 122.964 90.5899 121.417 87.6119C118.476 81.9507 112.293 71.6524 99.8483 50.9282C99.2694 49.9641 98.6769 48.9774 98.0706 47.9676C91.1154 36.3841 84.6777 25.7306 79.9088 17.8981C77.5242 13.9815 75.558 10.7722 74.1535 8.50531C73.4509 7.37132 72.891 6.47662 72.4904 5.8483C72.2896 5.53347 72.1322 5.29065 72.0182 5.12C71.928 4.98484 71.8878 4.93009 71.8822 4.92091C71.6959 4.73281 71.2398 4.37876 70.5648 3.94062C69.8898 3.50246 69.0896 3.04014 68.3361 2.66397C64.5583 0.778708 60.4419 0.778678 56.6641 2.66388L1.65561 95.9306ZM1.65561 95.9306C1.62902 95.8286 1.6034 95.7313 1.57884 95.6381C1.306 94.6021 1.16529 94.0678 1.30203 93.1879C1.46402 92.1455 2.03612 90.5899 3.583 87.6119C6.5236 81.9508 12.7074 71.6525 25.1514 50.9286C25.7304 49.9644 26.323 48.9775 26.9294 47.9676C33.8846 36.3841 40.3223 25.7306 45.0912 17.8981C47.4758 13.9815 49.442 10.7722 50.8465 8.50531C51.5491 7.37132 52.109 6.47662 52.5096 5.8483C52.7104 5.53347 52.8679 5.29065 52.9818 5.12C53.0721 4.98478 53.1123 4.93005 53.1178 4.9209L1.65561 95.9306ZM114.859 98.2366H115.454L115.83 97.7736L116.758 96.6275C117.106 96.1996 117.396 95.6768 117.6 95.1789C117.797 94.7007 117.967 94.1198 117.967 93.5806C117.967 93.3905 117.924 93.2384 117.911 93.1913C117.891 93.1199 117.867 93.0553 117.848 93.0054C117.809 92.9043 117.76 92.794 117.708 92.6848C117.603 92.4628 117.456 92.174 117.274 91.8314C116.909 91.1424 116.378 90.184 115.708 89.0006C114.368 86.6311 112.454 83.3279 110.155 79.4058C105.558 71.5601 99.4112 61.2206 93.2128 50.8837C87.0145 40.5468 80.7622 30.2089 75.9528 22.3662C73.5485 18.4456 71.5023 15.1445 70.0029 12.7779C69.2539 11.5956 68.6371 10.6398 68.1785 9.95438C67.9499 9.61274 67.7545 9.32909 67.5985 9.11469C67.5209 9.0081 67.446 8.90901 67.3771 8.82438C67.3254 8.76083 67.2207 8.63408 67.0909 8.52669C64.4985 6.38277 60.525 6.36618 57.9368 8.50446L57.9367 8.50459C57.8071 8.61168 57.7025 8.73796 57.6501 8.80213C57.5809 8.88702 57.5057 8.98636 57.4278 9.0932C57.2711 9.30809 57.0751 9.5922 56.846 9.93424C56.3863 10.6205 55.7684 11.5769 55.0184 12.7599C53.517 15.1277 51.469 18.4297 49.063 22.3511C44.2501 30.1954 37.995 40.5342 31.7943 50.8721C25.5937 61.21 19.4454 71.5505 14.8464 79.3979C12.5474 83.3209 10.633 86.6252 9.29212 88.996C8.62245 90.1801 8.09133 91.1393 7.72579 91.8292C7.54399 92.1723 7.39629 92.4617 7.29148 92.6843C7.23991 92.7938 7.19051 92.9045 7.15139 93.0061C7.13206 93.0562 7.10867 93.1211 7.08846 93.1926C7.07495 93.2405 7.03254 93.3917 7.03254 93.5806C7.03254 94.1198 7.20284 94.7007 7.39958 95.1789C7.60431 95.6766 7.89405 96.1991 8.24111 96.6269C8.24128 96.6271 8.24145 96.6273 8.24162 96.6275L9.17034 97.7736L9.54555 98.2366H10.1415H62.5H114.859ZM60.4438 35.1988L60.4442 35.1983C61.0244 34.6185 61.6128 34.3719 62.5 34.3719C63.3872 34.3719 63.9756 34.6185 64.5558 35.1983L64.5563 35.1988L65.3832 36.0243V50.6057V65.1871L64.5563 66.0127L64.5559 66.013C63.4204 67.1475 61.5796 67.1475 60.4441 66.013L60.4438 66.0127L59.6168 65.1871V50.6057V36.0243L60.4438 35.1988ZM57.6718 77.8029C57.6718 77.2461 57.9357 76.376 58.4243 75.5048C58.9202 74.6208 59.4912 74.0135 59.8778 73.8035C60.4692 73.4824 61.4 73.2753 62.4321 73.2716C63.4616 73.2679 64.4159 73.4673 65.0456 73.7926C65.4694 74.0117 66.0593 74.6164 66.5624 75.487C67.0594 76.3471 67.3282 77.2194 67.3282 77.8029C67.3282 77.9131 67.2808 78.2288 67.1441 78.6999C67.0163 79.1407 66.8403 79.6151 66.6541 80.007C65.917 81.5585 64.2753 82.4114 62.5 82.4114C60.7248 82.4114 59.0831 81.5586 58.3459 80.0072C58.1598 79.6152 57.9838 79.1407 57.8559 78.6999C57.7192 78.2288 57.6718 77.9131 57.6718 77.8029Z" fill="#423732" stroke="#322A27" stroke-width="2.5"/>
</g>
<defs>
<clipPath id="clip0_75_172">
<rect width="110" height="93" fill="white"/>
</clipPath>
</defs>
</svg>
