<svg width="156" height="42" viewBox="0 0 156 42" fill="none" xmlns="http://www.w3.org/2000/svg">
<g id="g12">
<path id="path16" d="M111.786 6.28515C112.289 5.35172 112.796 4.41198 113.303 3.46594C113.455 3.18882 113.579 2.93927 113.707 2.65638C113.761 2.52254 113.817 2.38109 113.817 2.24752C113.817 1.96069 113.622 1.74446 113.363 1.74446C113.158 1.74446 112.935 1.89587 112.766 2.14964C112.38 2.75164 111.981 3.37568 111.608 3.99814C110.107 6.57093 108.375 9.18781 105.993 12.482C97.8152 23.7646 91.564 30.6637 87.4128 32.9875C86.7992 33.3063 86.0949 33.6309 85.5057 33.6309C84.9478 33.6309 84.5705 33.3415 84.3519 32.7458C84.1472 32.176 84.0433 31.4943 84.0433 30.7193C84.0433 28.4145 84.8665 25.2465 86.5604 21.0354C88.1371 17.0159 90.2244 12.9974 93.1297 8.38742C94.2358 6.61187 95.1794 5.28349 96.1892 4.08028C96.2131 4.05036 96.2367 4.01756 96.2606 3.9845C96.3212 3.89947 96.3698 3.8315 96.433 3.79449C96.7944 3.65279 97.0466 3.38853 97.2906 3.1332C97.3442 3.07704 97.3977 3.02114 97.4515 2.96708C97.6292 2.78968 97.7268 2.56898 97.7268 2.34566C97.7268 2.16406 97.6814 2.01133 97.5916 1.8914C97.4126 1.65286 97.0271 1.49882 96.6094 1.49882C96.4461 1.49882 96.2774 1.53268 96.1688 1.58701C95.413 1.92606 93.9408 3.81943 93.4897 4.47128C89.8205 9.48907 87.3878 15.0726 85.6784 19.3766L85.665 19.411C84.4815 22.4192 82.6934 26.9643 82.6934 30.5228C82.6934 30.9059 82.7186 31.2767 82.7679 31.6247C83.0198 33.6944 83.9572 34.8336 85.4073 34.8336C85.8752 34.8336 86.3854 34.7218 86.9233 34.5016C92.8092 32.17 101.764 19.722 106.068 13.7398L106.201 13.8219C102.423 21.1574 100.874 24.5165 98.3246 33.395C97.6937 35.5686 96.9416 38.4755 96.9416 39.9808V40.0545C96.9416 40.477 97.1266 40.9263 97.4691 40.9263C97.5071 40.9263 97.5961 40.9263 97.6696 40.8717C97.7688 40.8098 97.8249 40.7079 97.8249 40.5948C97.8249 40.529 97.8037 40.4686 97.7793 40.3983C97.7443 40.2999 97.7021 40.1791 97.7021 40.0054C97.7021 39.9424 97.7021 39.8879 97.7171 39.8427L97.7252 39.8063C98.0377 37.5478 98.5384 35.8822 99.2656 33.6C102.397 23.6974 106.952 15.2487 111.776 6.30405L111.786 6.28515Z" fill="#91786A"/>
<path id="path18" d="M60.8152 32.1496C60.9406 32.1808 61.0589 32.1808 61.1841 32.1808C63.268 32.1808 66.5664 29.2548 69.4764 26.6733C70.9893 25.3318 72.4171 24.0651 73.4495 23.418C73.5836 23.3563 73.6828 23.2524 73.7623 23.1689L73.946 22.9753L73.8145 22.8438C73.7841 22.8026 73.7571 22.7658 73.7198 22.7286L73.6206 22.6294L73.4988 22.6989C73.4183 22.7449 73.338 22.785 73.2577 22.8254C73.1611 22.8737 73.0719 22.9183 72.9842 22.9684C72.3342 23.3353 71.1822 24.3572 69.7239 25.6509C66.9448 28.1166 63.1386 31.4938 61.2825 31.4938C61.1975 31.4938 61.0994 31.4796 60.9831 31.4502C60.5189 31.3339 60.2599 31.0243 60.2137 30.5304L60.2134 30.3756C60.2134 29.0443 61.4801 27.2184 62.4052 25.8855C62.9746 25.0647 63.2992 24.5873 63.3488 24.3165C63.4071 24.1126 63.4071 23.9423 63.4071 23.7919C63.4071 22.8315 62.64 22.4727 61.921 22.2116L61.8336 22.1799L61.8793 22.099C61.9816 21.9177 62.0312 21.7322 62.0312 21.5319C62.0312 20.9402 61.5132 20.5867 61.0122 20.5867C60.7532 20.5867 60.5165 20.6869 60.3276 20.8769C59.9043 21.3753 59.6492 21.9802 59.6492 22.49C59.6492 22.7396 59.7193 22.9582 59.8515 23.1227L59.9024 23.186L59.8376 23.2348C58.6239 24.1522 54.5188 27.1457 52.6496 27.1462C52.3491 27.1286 52.2284 27.0108 52.2284 26.74C52.2284 26.2387 52.6263 25.3982 52.9459 24.723C53.1479 24.2963 53.3387 23.8935 53.4235 23.6017L53.4642 23.472C53.5573 23.1763 53.6534 22.8713 53.6534 22.5882C53.6534 22.305 53.5319 22.0862 53.3025 21.9552C53.1944 21.9014 53.0918 21.8642 52.9538 21.8642C52.5879 21.8642 52.2733 22.1337 51.9962 22.3712L51.8694 22.479C51.7387 22.5987 51.4858 22.9149 51.1031 23.3936C49.8679 24.939 47.2996 28.1531 45.8481 28.1536C45.5479 28.1324 45.4314 28.0933 45.3755 27.7637L45.3745 27.7225C45.3745 27.2433 46.3255 25.4546 47.5867 23.5623C47.7717 23.2492 47.9869 22.9921 48.1947 22.7433C48.3351 22.5753 48.465 22.42 48.5794 22.2581C48.6833 22.119 48.74 21.9576 48.74 21.802C48.74 21.4312 48.492 21.1517 48.1632 21.1517C47.9226 21.1517 47.6607 21.3057 47.3846 21.6091C47.2552 21.7581 46.7698 22.4061 46.2397 23.2232C45.5374 23.9604 44.5407 24.9405 43.8222 25.5155C42.512 26.5636 40.6446 27.6508 39.1881 26.8749C38.4229 26.45 38.3799 25.631 38.3342 24.7639C38.3205 24.5094 38.3069 24.2491 38.2709 24.0061C38.1589 23.3322 37.8036 23.1904 37.5254 23.1904C37.3351 23.1904 37.1294 23.2757 36.8964 23.4508C36.5227 23.7394 35.6869 24.5818 34.9495 25.325L34.909 25.3654C34.581 25.6958 34.2979 25.9813 34.1134 26.1584C33.9895 26.2684 33.852 26.3605 33.678 26.477L33.5397 26.5707L33.5339 26.4295C33.5332 26.4096 33.5329 26.3902 33.5329 26.3713C33.5329 26.3085 33.5471 26.2345 33.5783 26.1385C33.7539 25.4095 33.9202 24.7482 34.1617 24.0966C34.2858 23.74 34.4658 23.3033 34.6561 22.8409C35.0641 21.851 35.526 20.73 35.5966 19.9768L35.5963 19.8369C35.5963 19.3008 35.246 18.9408 34.7248 18.9408C34.6227 18.9408 34.4682 18.9408 34.3273 18.9977C32.7866 19.5113 30.7407 21.2267 29.3381 22.6617L29.0247 22.9821L29.2103 22.574C29.341 22.2861 29.4475 22.0421 29.5454 21.8059C29.601 21.6387 29.6267 21.4997 29.6267 21.36C29.6267 20.9688 29.353 20.6848 28.9762 20.6848C28.7374 20.6848 28.5185 20.793 28.343 20.9974L28.1797 21.1905C27.8501 21.5786 27.5095 21.9796 27.3284 22.4551L27.2515 22.6782L27.2266 22.6926C27.2061 22.7039 27.1999 22.7071 27.1938 22.7118C26.9834 22.8582 26.7774 23.0033 26.5713 23.1485C26.1423 23.451 25.7114 23.7549 25.2913 24.0294C23.9728 24.8686 19.9202 27.016 18.3822 27.1945L18.2405 27.195C18.1045 27.195 17.7857 27.195 17.7857 26.6169C17.7857 26.1996 17.9817 25.7079 18.1499 25.4134C18.5305 24.7954 18.9469 24.1795 19.3497 23.5838C19.5801 23.2437 19.8008 22.9173 20.0097 22.5992C20.0473 22.547 20.0874 22.4995 20.127 22.4525C20.2254 22.3363 20.3304 22.2124 20.3771 22.0668C20.4139 21.9781 20.4139 21.8886 20.4139 21.802C20.4139 21.4537 20.1819 21.2008 19.862 21.2008C19.592 21.2008 19.3001 21.3669 18.9438 21.7235C17.8363 22.8566 16.6324 24.8183 16.6074 26.4463V26.4943C16.6074 27.4561 17.1577 28.0537 18.0439 28.0537C18.1827 28.0537 18.3457 28.0264 18.5034 27.9999C21.2751 27.4092 24.3736 25.3793 26.7629 23.6772L26.9587 23.5379L26.8834 23.7662C26.6068 24.6049 26.3383 25.457 26.1084 26.1897L26.1003 26.2157C25.9612 26.6591 25.8219 27.1024 25.6802 27.5464C25.5731 27.8957 25.5251 28.1547 25.5251 28.3859C25.5251 29.0805 25.9854 29.1346 26.1265 29.1346C26.4669 29.1346 26.8535 28.8638 27.187 28.3914C27.4402 28.0258 27.6866 27.6469 27.9249 27.2806C28.3141 26.6817 28.7114 26.0708 29.1494 25.4964C30.6927 23.4004 32.125 21.9056 33.6565 20.794C33.8153 20.6746 33.984 20.5691 34.1575 20.4623L34.306 20.3707L34.2761 20.5429C34.2703 20.5767 34.2643 20.6048 34.2598 20.625C34.1016 21.0669 33.9404 21.4991 33.7793 21.9327L33.7714 21.9536C33.3526 23.0784 32.9207 24.2383 32.5819 25.415C32.5126 25.669 32.4772 25.9829 32.4772 26.3469C32.4772 26.4991 32.4772 26.6568 32.5021 26.8032C32.559 27.3409 32.9104 27.6852 33.398 27.6852C33.5925 27.6852 33.762 27.6477 33.916 27.5705C34.5844 27.2585 35.4596 26.2695 36.2319 25.3969C36.5746 25.0096 36.9286 24.6094 37.2063 24.342L37.3239 24.2286L37.3393 24.3913C37.4595 25.6478 37.6836 27.0334 38.8291 27.5724C39.2293 27.7472 39.6471 27.8327 40.1048 27.8327C41.6179 27.8327 43.1276 26.8344 44.1277 25.9971C44.3631 25.8018 44.5982 25.6011 44.8265 25.4L45.1131 25.1479L44.9496 25.4929C44.4988 26.4442 44.2702 27.2192 44.2702 27.7962L44.271 27.9156C44.33 28.6215 44.9123 29.1556 45.6873 29.2083H45.8295C47.5688 29.2083 49.1014 27.3086 50.4537 25.6326C50.7009 25.326 50.932 25.0392 51.1548 24.7765L51.3716 24.5207L51.2913 24.8463C51.1478 25.4284 51.0748 25.9498 51.0748 26.3959C51.0748 27.3958 51.4438 27.9768 52.1413 28.0765L52.3893 28.0783C54.6354 28.0783 57.7083 25.7499 59.952 24.0499C60.1943 23.8662 60.4215 23.6951 60.6399 23.5319L60.6706 23.5088L60.7076 23.5187C60.7766 23.5376 60.8459 23.556 60.9146 23.5741C61.3801 23.6953 61.8614 23.8205 61.8557 24.099C61.848 24.1381 61.841 24.1656 61.8378 24.1979C61.7407 24.5312 61.4292 25.061 61.0687 25.6745C60.3236 26.942 59.3054 28.6746 59.3054 30.105C59.3054 30.4268 59.3393 30.6784 59.4117 30.8968C59.5689 31.3906 59.8702 31.9782 60.8152 32.1496Z" fill="#91786A"/>
<path id="path20" d="M134.865 22.7556C134.579 23.028 134.348 23.271 134.145 23.4856C134.047 23.5885 133.957 23.6835 133.871 23.7706L133.467 24.1834L133.747 23.6775C133.97 23.2733 134.306 22.7577 134.518 22.6343L134.588 22.6047C134.678 22.5671 134.708 22.5556 134.727 22.5519L134.75 22.5477L134.772 22.5567C134.792 22.565 134.82 22.5824 134.873 22.6495L134.918 22.706L134.865 22.7556ZM125.89 25.4617C125.869 25.5184 125.848 25.5745 125.827 25.6296C124.906 27.6839 123.609 29.4809 121.862 31.1269C121.458 31.5103 121.064 31.7393 120.809 31.7393C120.666 31.7393 120.6 31.6417 120.6 31.4318C120.6 30.9686 120.945 30.2189 121.523 29.4264C122.657 27.8542 124.086 26.4891 125.772 25.3698L125.968 25.2394L125.89 25.4617ZM123.802 20.5969C125.194 17.8619 126.918 15.3426 128.927 13.1092C129.21 12.8055 129.551 12.5308 129.882 12.265L130.066 12.1159C130.1 12.0876 130.141 12.0605 130.185 12.0345L130.35 11.9377L130.301 12.1227C130.277 12.2143 130.254 12.2789 130.227 12.3321C128.533 15.6053 125.971 18.5161 123.929 20.6864L123.552 21.0873L123.802 20.5969ZM147.502 23.3568C147.478 23.7092 147.452 24.1695 147.452 24.6518C147.452 25.5737 147.574 26.6935 148.529 27.1706C148.866 27.3519 149.232 27.4396 149.65 27.4396C151.702 27.4396 154.165 25.1678 155.869 23.2618C155.951 23.1799 156 23.0642 156 22.9566C156 22.744 155.874 22.6991 155.767 22.6991C155.621 22.6991 155.483 22.8322 154.92 23.3951C153.862 24.4534 151.661 26.6544 149.871 26.6544C149.579 26.6544 149.287 26.5864 149.029 26.4576C148.79 26.3258 148.508 25.8729 148.508 24.4553C148.508 24.0304 148.53 23.5927 148.551 23.2064C148.567 22.8957 148.581 22.6272 148.581 22.4163L148.581 22.305C148.545 21.6006 148.158 21.3482 147.808 21.3482C147.622 21.3482 147.441 21.4096 147.22 21.5474C146.578 21.9439 144.865 23.457 143.614 24.5618L142.99 25.1119L143.208 24.7161C143.691 23.8394 144.341 22.5934 144.691 21.6371C144.717 21.5581 144.749 21.417 144.749 21.2863C144.749 21.1598 144.702 21.0406 144.621 20.9595L144.599 20.9346L144.574 20.9223C144.492 20.8593 144.365 20.7585 144.172 20.7585H144.123C143.896 20.7585 143.658 20.912 143.369 21.1427C142.945 21.4823 142.433 21.9699 141.841 22.5349C140.068 24.2254 137.642 26.5381 135.673 26.5562C135.306 26.5562 135.07 26.2521 135.07 25.7818C135.07 25.5005 135.129 25.2352 135.251 24.9715C135.525 24.3569 135.904 23.6903 136.208 23.1547C136.483 22.6716 136.698 22.2929 136.775 22.0699C136.814 21.9809 136.814 21.8898 136.814 21.8019C136.814 21.4337 136.607 21.1763 136.311 21.1763L136.179 21.1858C136.06 21.2251 135.95 21.3631 135.726 21.6681L135.592 21.8484L135.528 21.7762C135.322 21.5442 135.067 21.4219 134.788 21.4219C134.377 21.4219 133.927 21.687 133.411 22.2328C133.383 22.2685 133.271 22.4283 133.133 22.6417L133.111 22.6758L133.07 22.6776C133.002 22.6805 132.926 22.6863 132.84 22.6991C130.787 22.8443 129.227 23.0597 127.311 23.7347L127.213 23.7688L127.206 23.6654C127.183 23.3229 127.098 22.8794 126.639 22.4871C126.415 22.3192 126.155 22.2323 125.87 22.2323C125.15 22.2323 124.306 22.7228 123.803 23.1424L121.548 25.1919L121.665 24.8843C121.684 24.8363 121.701 24.7888 121.718 24.7426C122.039 23.8932 122.531 23.1891 123.268 22.5259C126.252 19.77 128.781 16.7017 130.787 13.407C131.002 13.0845 131.174 12.7573 131.288 12.4581C131.387 12.26 131.433 12.0322 131.433 11.7545C131.433 11.1258 131.045 10.6865 130.488 10.6865C130.384 10.6865 130.294 10.6865 130.169 10.7174C129.077 11.0087 127.795 12.1904 126.913 13.1302C124.485 15.7964 122.503 18.9596 120.855 22.7999L120.844 22.8264L120.818 22.8393C120.735 22.8805 120.653 22.9217 120.572 22.9684C119.922 23.335 118.77 24.3566 117.312 25.6501C114.532 28.1166 110.726 31.4937 108.87 31.4937C108.785 31.4937 108.687 31.4795 108.57 31.4502C108.106 31.3339 107.847 31.0242 107.801 30.5304L107.801 30.3755C107.801 29.0445 109.067 27.2191 109.992 25.8863C110.562 25.0644 110.886 24.587 110.936 24.3167C110.994 24.1126 110.994 23.9422 110.994 23.7919C110.994 22.8314 110.227 22.4727 109.508 22.2116L109.421 22.1798L109.466 22.099C109.569 21.9177 109.618 21.7321 109.618 21.5319C109.618 20.9401 109.1 20.5866 108.599 20.5866C108.34 20.5866 108.104 20.6869 107.915 20.8769C107.492 21.3755 107.236 21.9801 107.236 22.49C107.236 22.7766 107.325 23.0232 107.487 23.1849L107.519 23.2111C107.776 23.3854 108.145 23.4812 108.502 23.5741C108.967 23.6953 109.449 23.8205 109.443 24.0989C109.435 24.138 109.428 24.1656 109.425 24.1978C109.328 24.5316 109.016 25.0625 108.654 25.6771C107.911 26.942 106.893 28.6745 106.893 30.105C106.893 30.427 106.926 30.6786 106.999 30.897C107.156 31.3909 107.458 31.9784 108.402 32.1495C108.528 32.1807 108.646 32.1807 108.771 32.1807C110.855 32.1807 114.154 29.2547 117.064 26.6733C118.211 25.6559 119.294 24.6946 120.21 23.9981L120.432 23.8291L120.331 24.0895C119.87 25.2735 119.412 26.5038 118.97 27.7458C118.906 27.8846 118.906 28.0072 118.906 28.1156C118.906 28.494 119.17 28.7905 119.507 28.7905C119.744 28.7905 119.968 28.6582 120.17 28.3977C121.537 26.5995 123.409 24.1359 125.504 23.1728L125.526 23.1613C125.604 23.114 125.691 23.0912 125.796 23.0912C126.089 23.0912 126.194 23.4334 126.225 23.5804L126.226 23.7428C126.226 23.8656 126.226 24.0183 126.21 24.1228L126.205 24.1572L126.176 24.1763C126.163 24.1845 126.151 24.1929 126.142 24.1999C123.803 25.7346 122.699 26.6363 120.765 28.9571C120.031 29.8523 119.643 30.6994 119.643 31.4071C119.643 32.2096 120.153 32.7701 120.883 32.7701C121.156 32.7701 121.403 32.7053 121.597 32.5825C121.986 32.3875 122.291 32.1718 122.486 31.9558C124.655 29.7352 126.142 28.0523 127.03 24.9922C127.109 24.6964 127.257 24.5823 127.538 24.4521C128.839 23.8848 130.061 23.615 131.497 23.3841C131.851 23.3316 132.124 23.3009 132.413 23.2681L132.777 23.2264L132.703 23.3599C132.395 23.9205 132.208 24.3776 132.15 24.719L132.147 24.8746C132.147 25.2578 132.459 25.548 132.872 25.548C132.999 25.548 133.188 25.5262 133.361 25.4226C133.675 25.231 133.956 24.9796 134.281 24.6615L134.48 24.4671L134.413 24.7369C134.329 25.0728 134.285 25.4003 134.285 25.6834C134.285 26.6717 134.798 27.1939 135.77 27.1939L135.918 27.1926C138.189 26.9737 140.693 24.5883 142.704 22.6716L143.461 21.952L143.218 22.3953C143.054 22.6923 142.879 22.9878 142.694 23.3006L142.679 23.3258C142.176 24.1742 141.656 25.0518 141.328 26.0212C141.267 26.1626 141.127 26.3387 140.992 26.509C140.749 26.8152 140.5 27.1283 140.5 27.4277C140.5 27.5999 140.595 27.7558 140.761 27.8555C140.929 27.9557 141.08 28.0045 141.224 28.0045C141.69 28.0045 142.082 27.6306 142.46 27.2687C142.548 27.185 142.635 27.1018 142.726 27.0202L142.771 26.9779C144.237 25.6081 145.741 24.2031 147.252 22.8141C147.287 22.7792 147.33 22.7432 147.395 22.6957L147.529 22.5979L147.52 22.7632C147.51 22.9555 147.501 23.1607 147.502 23.3568Z" fill="#91786A"/>
<path id="path22" d="M21.8704 19.0517C21.6678 18.9756 21.4754 18.9407 21.2629 18.9407C20.6262 18.9407 20.293 19.3669 20.293 19.7878C20.293 20.193 20.5769 20.4874 20.9679 20.4874C21.0501 20.4874 21.1238 20.4677 21.2017 20.4473L21.2708 20.4289C22.1929 20.1452 22.3309 19.7513 22.3309 19.5419C22.3309 19.3307 22.1588 19.1475 21.8704 19.0517Z" fill="#91786A"/>
<path id="path24" d="M18.5217 10.1763V10.1761C20.0338 7.55973 21.5193 4.81951 22.937 2.03153C23.0485 1.8523 23.1506 1.81714 23.271 1.81714L24.5551 1.84153C25.4497 1.84153 26.8625 1.86568 28.8724 1.91528C30.7587 1.96251 32.5485 2.02917 34.6922 2.11157C36.9952 2.20027 38.1748 2.34827 38.6729 2.42858L38.7437 2.44039C39.1628 2.5102 39.5835 2.58026 40.0299 2.65059L40.1319 2.66528C40.608 2.73299 41.0979 2.80279 41.5863 2.91248C41.675 2.94712 41.7469 2.94712 41.8233 2.94712C42.2305 2.94712 42.3757 2.71252 42.3757 2.49313C42.3757 2.20761 42.2116 1.86725 41.4302 1.86725C40.9399 1.86725 40.5857 1.86725 40.4461 1.84416C36.8241 1.34451 31.6444 1.00519 25.0531 0.835667L23.8134 0.786335C23.8127 0.786335 23.8121 0.786335 23.8116 0.786335C23.7373 0.786335 23.6736 0.782135 23.62 0.773739L23.561 0.764023L23.5542 0.704453C23.5355 0.534142 23.45 0.368561 23.3075 0.225803C23.1598 0.0783195 22.9705 0.000114441 22.7601 0.000114441C22.5173 0.000114441 22.2767 0.112694 22.0639 0.325516C21.9878 0.401882 21.9093 0.480354 21.865 0.576138L21.8534 0.594246C21.7705 0.691864 21.639 0.737259 21.4396 0.737259L18.2175 0.663513C16.559 0.638321 14.8703 0.586632 13.3803 0.54071L12.0721 0.516045C8.59742 0.516045 5.10063 0.865593 1.68063 1.55471L0.519204 1.86174C0.0912453 2.0562 0 2.33936 0 2.54221C0 2.97731 0.233714 3.24943 0.641204 3.28879C0.765645 3.31556 0.894391 3.31556 1.04355 3.31556C1.70095 3.31556 2.46074 3.23238 3.30212 3.06863L4.31216 2.92062C9.43113 2.18951 15.0504 1.81792 21.0139 1.81714L21.143 1.81687L21.084 1.9318C21.0538 1.99033 21.0263 2.04386 21.021 2.05252L20.9725 2.11735C15.898 11.1326 10.8198 21.9003 5.88557 34.1127C5.03862 36.1701 4.29576 38.338 3.67783 40.5565C3.65445 40.6043 3.64513 40.6381 3.636 40.6709L3.61897 40.7137C3.58679 40.8108 3.5868 40.8851 3.5868 40.9633C3.5868 41.1231 3.66634 41.2372 3.81088 41.285L3.83906 41.2944H3.94251C4.14783 41.2944 4.23393 41.0908 4.29093 40.8916L4.3147 40.7714C4.65575 39.6506 5.05062 38.5154 5.48834 37.3972C9.50658 27.4251 13.8915 18.2668 18.5217 10.1763Z" fill="#91786A"/>
</g>
</svg>
