<svg width="204" height="302" viewBox="0 0 204 302" fill="none" xmlns="http://www.w3.org/2000/svg">
<path d="M63.0843 210.992V203.238C63.0843 192.355 64.1767 182.696 66.3615 174.262C68.8193 165.556 72.506 158.21 77.4217 152.224C82.3373 145.967 86.5703 141.341 90.1205 138.349C93.6707 135.084 98.7229 131.139 105.277 126.514C111.012 122.432 115.245 119.168 117.976 116.719C120.98 114.27 123.711 110.869 126.169 106.516C128.9 101.891 130.265 96.9937 130.265 91.8243C130.265 83.3901 127.534 76.5883 122.072 71.4189C116.61 66.2495 109.783 63.6648 101.59 63.6648C97.7671 63.6648 93.9438 64.345 90.1205 65.7054C86.5703 67.0658 83.4297 68.9703 80.6988 71.4189C77.9679 73.8676 75.6466 76.9964 73.7349 80.8054C72.0964 84.6144 71.2771 88.8315 71.2771 93.4567H0C0 64.073 9.69478 41.2189 29.0843 24.8946C48.4739 8.29819 72.7791 0 102 0C131.494 0 155.799 8.43423 174.916 25.3027C194.305 41.8991 204 63.9369 204 91.4162C204 100.395 202.908 108.557 200.723 115.903C198.538 123.249 194.988 129.914 190.072 135.9C185.43 141.614 181.333 146.103 177.783 149.368C174.506 152.36 169.59 156.441 163.036 161.611C158.12 165.42 154.434 168.413 151.976 170.589C149.518 172.766 146.651 175.759 143.374 179.568C140.096 183.104 137.775 186.777 136.41 190.586C135.044 194.395 134.361 198.613 134.361 203.238V210.992H63.0843ZM61.4458 302V231.397H135.181V302H61.4458Z" fill="#231E1B"/>
</svg>
