<svg width="156" height="42" viewBox="0 0 156 42" fill="none" xmlns="http://www.w3.org/2000/svg">
<g id="g10">
<g id="g12">
<path id="path16" d="M111.786 6.28463C112.289 5.3512 112.796 4.41146 113.303 3.46542C113.455 3.1883 113.579 2.93875 113.707 2.65586C113.761 2.52202 113.817 2.38057 113.817 2.247C113.817 1.96017 113.622 1.74394 113.363 1.74394C113.158 1.74394 112.935 1.89536 112.766 2.14912C112.38 2.75112 111.981 3.37516 111.608 3.99762C110.107 6.57042 108.375 9.1873 105.993 12.4815C97.8152 23.7641 91.564 30.6632 87.4128 32.9869C86.7992 33.3058 86.0949 33.6304 85.5057 33.6304C84.9478 33.6304 84.5705 33.3409 84.3519 32.7452C84.1472 32.1755 84.0433 31.4938 84.0433 30.7188C84.0433 28.414 84.8665 25.246 86.5604 21.0349C88.1371 17.0154 90.2244 12.9969 93.1297 8.3869C94.2358 6.61135 95.1794 5.28297 96.1892 4.07976C96.2131 4.04984 96.2367 4.01704 96.2606 3.98398C96.3212 3.89895 96.3698 3.83098 96.433 3.79398C96.7944 3.65227 97.0466 3.38802 97.2906 3.13268C97.3442 3.07652 97.3977 3.02062 97.4515 2.96656C97.6292 2.78917 97.7268 2.56846 97.7268 2.34514C97.7268 2.16354 97.6814 2.01081 97.5916 1.89088C97.4126 1.65234 97.0271 1.4983 96.6094 1.4983C96.4461 1.4983 96.2774 1.53217 96.1688 1.58649C95.413 1.92554 93.9408 3.81891 93.4897 4.47076C89.8205 9.48855 87.3878 15.0721 85.6784 19.3761L85.665 19.4105C84.4815 22.4186 82.6934 26.9638 82.6934 30.5223C82.6934 30.9054 82.7186 31.2762 82.7679 31.6242C83.0198 33.6939 83.9572 34.8331 85.4073 34.8331C85.8752 34.8331 86.3854 34.7213 86.9233 34.5011C92.8092 32.1695 101.764 19.7215 106.068 13.7393L106.201 13.8214C102.423 21.1569 100.874 24.5159 98.3246 33.3945C97.6937 35.5681 96.9416 38.475 96.9416 39.9802V40.054C96.9416 40.4765 97.1266 40.9258 97.4691 40.9258C97.5071 40.9258 97.5961 40.9257 97.6696 40.8712C97.7688 40.8092 97.8249 40.7074 97.8249 40.5943C97.8249 40.5284 97.8037 40.4681 97.7793 40.3978C97.7443 40.2993 97.7021 40.1786 97.7021 40.0049C97.7021 39.9419 97.7021 39.8873 97.7171 39.8422L97.7252 39.8057C98.0377 37.5473 98.5384 35.8817 99.2656 33.5994C102.397 23.6969 106.952 15.2482 111.776 6.30354L111.786 6.28463Z" fill="white"/>
<path id="path18" d="M60.8152 32.149C60.9406 32.1803 61.0589 32.1803 61.1841 32.1803C63.268 32.1803 66.5664 29.2543 69.4764 26.6728C70.9893 25.3313 72.4171 24.0646 73.4495 23.4174C73.5836 23.3558 73.6828 23.2519 73.7623 23.1684L73.946 22.9747L73.8145 22.8433C73.7841 22.8021 73.7571 22.7653 73.7198 22.7281L73.6206 22.6289L73.4988 22.6984C73.4183 22.7443 73.338 22.7845 73.2577 22.8249C73.1611 22.8732 73.0719 22.9178 72.9842 22.9679C72.3342 23.3348 71.1822 24.3567 69.7239 25.6504C66.9448 28.1161 63.1386 31.4932 61.2825 31.4932C61.1975 31.4932 61.0994 31.4791 60.9831 31.4497C60.5189 31.3334 60.2599 31.0238 60.2137 30.5299L60.2134 30.3751C60.2134 29.0438 61.4801 27.2178 62.4052 25.885C62.9746 25.0641 63.2992 24.5868 63.3488 24.316C63.4071 24.1121 63.4071 23.9418 63.4071 23.7914C63.4071 22.8309 62.64 22.4722 61.921 22.2111L61.8336 22.1793L61.8793 22.0985C61.9816 21.9172 62.0312 21.7316 62.0312 21.5314C62.0312 20.9397 61.5132 20.5862 61.0122 20.5862C60.7532 20.5862 60.5165 20.6864 60.3276 20.8764C59.9043 21.3747 59.6492 21.9796 59.6492 22.4895C59.6492 22.7391 59.7193 22.9577 59.8515 23.1222L59.9024 23.1855L59.8376 23.2343C58.6239 24.1517 54.5188 27.1452 52.6496 27.1457C52.3491 27.1281 52.2284 27.0103 52.2284 26.7395C52.2284 26.2382 52.6263 25.3977 52.9459 24.7225C53.1479 24.2958 53.3387 23.893 53.4235 23.6011L53.4642 23.4715C53.5573 23.1758 53.6534 22.8708 53.6534 22.5877C53.6534 22.3045 53.5319 22.0857 53.3025 21.9547C53.1944 21.9009 53.0918 21.8636 52.9538 21.8636C52.5879 21.8636 52.2733 22.1331 51.9962 22.3706L51.8694 22.4785C51.7387 22.5982 51.4858 22.9144 51.1031 23.393C49.8679 24.9384 47.2996 28.1526 45.8481 28.1531C45.5479 28.1319 45.4314 28.0928 45.3755 27.7632L45.3745 27.722C45.3745 27.2428 46.3255 25.4541 47.5867 23.5618C47.7717 23.2487 47.9869 22.9915 48.1947 22.7428C48.3351 22.5748 48.465 22.4195 48.5794 22.2575C48.6833 22.1185 48.74 21.9571 48.74 21.8014C48.74 21.4306 48.492 21.1512 48.1632 21.1512C47.9226 21.1512 47.6607 21.3052 47.3846 21.6086C47.2552 21.7576 46.7698 22.4055 46.2397 23.2227C45.5374 23.9599 44.5407 24.94 43.8222 25.515C42.512 26.5631 40.6446 27.6503 39.1881 26.8743C38.4229 26.4495 38.3799 25.6305 38.3342 24.7634C38.3205 24.5089 38.3069 24.2485 38.2709 24.0055C38.1589 23.3316 37.8036 23.1899 37.5254 23.1899C37.3351 23.1899 37.1294 23.2752 36.8964 23.4503C36.5227 23.7389 35.6869 24.5813 34.9495 25.3245L34.909 25.3649C34.581 25.6953 34.2979 25.9808 34.1134 26.1579C33.9895 26.2679 33.852 26.36 33.678 26.4765L33.5397 26.5702L33.5339 26.429C33.5332 26.4091 33.5329 26.3896 33.5329 26.3707C33.5329 26.308 33.5471 26.234 33.5783 26.138C33.7539 25.409 33.9202 24.7477 34.1617 24.0961C34.2858 23.7394 34.4658 23.3028 34.6561 22.8404C35.0641 21.8505 35.526 20.7295 35.5966 19.9763L35.5963 19.8364C35.5963 19.3003 35.246 18.9403 34.7248 18.9403C34.6227 18.9403 34.4682 18.9403 34.3273 18.9972C32.7866 19.5108 30.7407 21.2262 29.3381 22.6611L29.0247 22.9816L29.2103 22.5735C29.341 22.2856 29.4475 22.0416 29.5454 21.8054C29.601 21.6382 29.6267 21.4991 29.6267 21.3595C29.6267 20.9683 29.353 20.6843 28.9762 20.6843C28.7374 20.6843 28.5185 20.7924 28.343 20.9969L28.1797 21.19C27.8501 21.5781 27.5095 21.9791 27.3284 22.4546L27.2515 22.6777L27.2266 22.6921C27.2061 22.7034 27.1999 22.7065 27.1938 22.7113C26.9834 22.8577 26.7774 23.0028 26.5713 23.1479C26.1423 23.4505 25.7114 23.7544 25.2913 24.0289C23.9728 24.8681 19.9202 27.0155 18.3822 27.194L18.2405 27.1945C18.1045 27.1945 17.7857 27.1945 17.7857 26.6164C17.7857 26.1991 17.9817 25.7073 18.1499 25.4129C18.5305 24.7949 18.9469 24.179 19.3497 23.5833C19.5801 23.2432 19.8008 22.9167 20.0097 22.5987C20.0473 22.5465 20.0874 22.499 20.127 22.452C20.2254 22.3357 20.3304 22.2119 20.3771 22.0662C20.4139 21.9775 20.4139 21.888 20.4139 21.8014C20.4139 21.4532 20.1819 21.2002 19.862 21.2002C19.592 21.2002 19.3001 21.3664 18.9438 21.723C17.8363 22.8561 16.6324 24.8177 16.6074 26.4458V26.4938C16.6074 27.4556 17.1577 28.0531 18.0439 28.0531C18.1827 28.0531 18.3457 28.0259 18.5034 27.9993C21.2751 27.4086 24.3736 25.3788 26.7629 23.6767L26.9587 23.5374L26.8834 23.7657C26.6068 24.6044 26.3383 25.4565 26.1084 26.1892L26.1003 26.2151C25.9612 26.6586 25.8219 27.1019 25.6802 27.5459C25.5731 27.8952 25.5251 28.1542 25.5251 28.3854C25.5251 29.08 25.9854 29.1341 26.1265 29.1341C26.4669 29.1341 26.8535 28.8632 27.187 28.3909C27.4402 28.0253 27.6866 27.6464 27.9249 27.28C28.3141 26.6812 28.7114 26.0703 29.1494 25.4958C30.6927 23.3999 32.125 21.9051 33.6565 20.7935C33.8153 20.6741 33.984 20.5686 34.1575 20.4618L34.306 20.3702L34.2761 20.5423C34.2703 20.5762 34.2643 20.6043 34.2598 20.6245C34.1016 21.0664 33.9404 21.4986 33.7793 21.9321L33.7714 21.9531C33.3526 23.0779 32.9207 24.2378 32.5819 25.4145C32.5126 25.6685 32.4772 25.9824 32.4772 26.3463C32.4772 26.4986 32.4772 26.6563 32.5021 26.8027C32.559 27.3404 32.9104 27.6847 33.398 27.6847C33.5925 27.6847 33.762 27.6472 33.916 27.57C34.5844 27.258 35.4596 26.2689 36.2319 25.3964C36.5746 25.009 36.9286 24.6088 37.2063 24.3414L37.3239 24.2281L37.3393 24.3908C37.4595 25.6473 37.6836 27.0328 38.8291 27.5719C39.2293 27.7466 39.6471 27.8322 40.1048 27.8322C41.6179 27.8322 43.1276 26.8339 44.1277 25.9965C44.3631 25.8013 44.5982 25.6005 44.8265 25.3995L45.1131 25.1473L44.9496 25.4924C44.4988 26.4437 44.2702 27.2186 44.2702 27.7957L44.271 27.9151C44.33 28.621 44.9123 29.1551 45.6873 29.2078H45.8295C47.5688 29.2078 49.1014 27.3081 50.4537 25.632C50.7009 25.3255 50.932 25.0387 51.1548 24.776L51.3716 24.5202L51.2913 24.8458C51.1478 25.4279 51.0748 25.9493 51.0748 26.3954C51.0748 27.3953 51.4438 27.9763 52.1413 28.076L52.3893 28.0778C54.6354 28.0778 57.7083 25.7493 59.952 24.0494C60.1943 23.8657 60.4215 23.6946 60.6399 23.5313L60.6706 23.5082L60.7076 23.5182C60.7766 23.5371 60.8459 23.5555 60.9146 23.5736C61.3801 23.6948 61.8614 23.82 61.8557 24.0984C61.848 24.1375 61.841 24.1651 61.8378 24.1974C61.7407 24.5306 61.4292 25.0605 61.0687 25.674C60.3236 26.9415 59.3054 28.674 59.3054 30.1045C59.3054 30.4262 59.3393 30.6779 59.4117 30.8962C59.5689 31.3901 59.8702 31.9777 60.8152 32.149Z" fill="white"/>
<path id="path20" d="M134.865 22.7551C134.579 23.0275 134.348 23.2705 134.145 23.4851C134.047 23.588 133.957 23.683 133.871 23.7701L133.467 24.1829L133.747 23.677C133.97 23.2728 134.306 22.7572 134.518 22.6338L134.588 22.6042C134.678 22.5667 134.708 22.5551 134.727 22.5514L134.75 22.5472L134.772 22.5562C134.792 22.5646 134.82 22.5819 134.873 22.6491L134.918 22.7055L134.865 22.7551ZM125.89 25.4612C125.869 25.5179 125.848 25.574 125.827 25.6291C124.906 27.6834 123.609 29.4805 121.862 31.1264C121.458 31.5098 121.064 31.7389 120.809 31.7389C120.666 31.7389 120.6 31.6412 120.6 31.4313C120.6 30.9681 120.945 30.2184 121.523 29.4259C122.657 27.8537 124.086 26.4886 125.772 25.3693L125.968 25.2389L125.89 25.4612ZM123.802 20.5964C125.194 17.8614 126.918 15.3422 128.927 13.1087C129.21 12.8051 129.551 12.5303 129.882 12.2645L130.066 12.1154C130.1 12.0871 130.141 12.06 130.185 12.0341L130.35 11.9372L130.301 12.1222C130.277 12.2138 130.254 12.2784 130.227 12.3317C128.533 15.6048 125.971 18.5156 123.929 20.6859L123.552 21.0869L123.802 20.5964ZM147.502 23.3563C147.478 23.7087 147.452 24.169 147.452 24.6513C147.452 25.5732 147.574 26.693 148.529 27.1701C148.866 27.3514 149.232 27.4391 149.65 27.4391C151.702 27.4391 154.165 25.1673 155.869 23.2613C155.951 23.1794 156 23.0637 156 22.9561C156 22.7435 155.874 22.6987 155.767 22.6987C155.621 22.6987 155.483 22.8317 154.92 23.3946C153.862 24.453 151.661 26.6539 149.871 26.6539C149.579 26.6539 149.287 26.5859 149.029 26.4571C148.79 26.3253 148.508 25.8724 148.508 24.4548C148.508 24.0299 148.53 23.5922 148.551 23.2059C148.567 22.8952 148.581 22.6268 148.581 22.4158L148.581 22.3045C148.545 21.6002 148.158 21.3477 147.808 21.3477C147.622 21.3477 147.441 21.4091 147.22 21.5469C146.578 21.9434 144.865 23.4565 143.614 24.5613L142.99 25.1114L143.208 24.7156C143.691 23.8389 144.341 22.5929 144.691 21.6366C144.717 21.5576 144.749 21.4165 144.749 21.2858C144.749 21.1593 144.702 21.0401 144.621 20.9591L144.599 20.9341L144.574 20.9218C144.492 20.8588 144.365 20.758 144.172 20.758H144.123C143.896 20.758 143.658 20.9116 143.369 21.1422C142.945 21.4818 142.433 21.9694 141.841 22.5344C140.068 24.2249 137.642 26.5376 135.673 26.5557C135.306 26.5557 135.07 26.2516 135.07 25.7813C135.07 25.5 135.129 25.2347 135.251 24.971C135.525 24.3564 135.904 23.6898 136.208 23.1542C136.483 22.6711 136.698 22.2924 136.775 22.0694C136.814 21.9804 136.814 21.8893 136.814 21.8014C136.814 21.4333 136.607 21.1758 136.311 21.1758L136.179 21.1853C136.06 21.2246 135.95 21.3627 135.726 21.6676L135.592 21.8479L135.528 21.7757C135.322 21.5437 135.067 21.4214 134.788 21.4214C134.377 21.4214 133.927 21.6865 133.411 22.2323C133.383 22.268 133.271 22.4278 133.133 22.6412L133.111 22.6753L133.07 22.6771C133.002 22.68 132.926 22.6858 132.84 22.6987C130.787 22.8438 129.227 23.0592 127.311 23.7342L127.213 23.7683L127.206 23.6649C127.183 23.3224 127.098 22.8789 126.639 22.4866C126.415 22.3187 126.155 22.2318 125.87 22.2318C125.15 22.2318 124.306 22.7223 123.803 23.1419L121.548 25.1914L121.665 24.8839C121.684 24.8358 121.701 24.7883 121.718 24.7421C122.039 23.8927 122.531 23.1886 123.268 22.5255C126.252 19.7695 128.781 16.7013 130.787 13.4065C131.002 13.084 131.174 12.7568 131.288 12.4576C131.387 12.2595 131.433 12.0317 131.433 11.7541C131.433 11.1253 131.045 10.686 130.488 10.686C130.384 10.686 130.294 10.686 130.169 10.717C129.077 11.0082 127.795 12.1899 126.913 13.1297C124.485 15.7959 122.503 18.9591 120.855 22.7994L120.844 22.8259L120.818 22.8388C120.735 22.88 120.653 22.9212 120.572 22.9679C119.922 23.3345 118.77 24.3561 117.312 25.6496C114.532 28.1161 110.726 31.4932 108.87 31.4932C108.785 31.4932 108.687 31.4791 108.57 31.4497C108.106 31.3334 107.847 31.0238 107.801 30.5299L107.801 30.375C107.801 29.044 109.067 27.2186 109.992 25.8858C110.562 25.0639 110.886 24.5865 110.936 24.3162C110.994 24.1121 110.994 23.9418 110.994 23.7914C110.994 22.8309 110.227 22.4722 109.508 22.2111L109.421 22.1793L109.466 22.0985C109.569 21.9172 109.618 21.7316 109.618 21.5314C109.618 20.9396 109.1 20.5862 108.599 20.5862C108.34 20.5862 108.104 20.6864 107.915 20.8764C107.492 21.375 107.236 21.9796 107.236 22.4895C107.236 22.7761 107.325 23.0227 107.487 23.1844L107.519 23.2106C107.776 23.3849 108.145 23.4807 108.502 23.5736C108.967 23.6948 109.449 23.82 109.443 24.0984C109.435 24.1375 109.428 24.1651 109.425 24.1974C109.328 24.5312 109.016 25.062 108.654 25.6766C107.911 26.9415 106.893 28.674 106.893 30.1045C106.893 30.4265 106.926 30.6781 106.999 30.8965C107.156 31.3904 107.458 31.9779 108.402 32.149C108.528 32.1803 108.646 32.1803 108.771 32.1803C110.855 32.1803 114.154 29.2542 117.064 26.6728C118.211 25.6554 119.294 24.6941 120.21 23.9976L120.432 23.8286L120.331 24.089C119.87 25.273 119.412 26.5033 118.97 27.7453C118.906 27.8841 118.906 28.0067 118.906 28.1151C118.906 28.4935 119.17 28.79 119.507 28.79C119.744 28.79 119.968 28.6578 120.17 28.3972C121.537 26.599 123.409 24.1354 125.504 23.1723L125.526 23.1608C125.604 23.1135 125.691 23.0907 125.796 23.0907C126.089 23.0907 126.194 23.4329 126.225 23.5799L126.226 23.7423C126.226 23.8651 126.226 24.0179 126.21 24.1223L126.205 24.1567L126.176 24.1758C126.163 24.184 126.151 24.1924 126.142 24.1994C123.803 25.7341 122.699 26.6358 120.765 28.9566C120.031 29.8518 119.643 30.6989 119.643 31.4066C119.643 32.2091 120.153 32.7697 120.883 32.7697C121.156 32.7697 121.403 32.7048 121.597 32.582C121.986 32.387 122.291 32.1713 122.486 31.9554C124.655 29.7347 126.142 28.0518 127.03 24.9917C127.109 24.696 127.257 24.5818 127.538 24.4516C128.839 23.8843 130.061 23.6145 131.497 23.3836C131.851 23.3311 132.124 23.3004 132.413 23.2676L132.777 23.2259L132.703 23.3594C132.395 23.92 132.208 24.3771 132.15 24.7185L132.147 24.8741C132.147 25.2573 132.459 25.5475 132.872 25.5475C132.999 25.5475 133.188 25.5257 133.361 25.4221C133.675 25.2305 133.956 24.9791 134.281 24.6611L134.48 24.4666L134.413 24.7364C134.329 25.0723 134.285 25.3998 134.285 25.6829C134.285 26.6712 134.798 27.1934 135.77 27.1934L135.918 27.1921C138.189 26.9733 140.693 24.5878 142.704 22.6711L143.461 21.9515L143.218 22.3948C143.054 22.6918 142.879 22.9873 142.694 23.3001L142.679 23.3253C142.176 24.1737 141.656 25.0513 141.328 26.0207C141.267 26.1621 141.127 26.3382 140.992 26.5085C140.749 26.8148 140.5 27.1278 140.5 27.4272C140.5 27.5994 140.595 27.7553 140.761 27.855C140.929 27.9552 141.08 28.0041 141.224 28.0041C141.69 28.0041 142.082 27.6301 142.46 27.2682C142.548 27.1845 142.635 27.1013 142.726 27.0197L142.771 26.9775C144.237 25.6076 145.741 24.2026 147.252 22.8136C147.287 22.7787 147.33 22.7427 147.395 22.6952L147.529 22.5974L147.52 22.7627C147.51 22.955 147.501 23.1603 147.502 23.3563Z" fill="white"/>
<path id="path22" d="M21.8704 19.0513C21.6678 18.9752 21.4754 18.9403 21.2629 18.9403C20.6262 18.9403 20.293 19.3664 20.293 19.7874C20.293 20.1925 20.5769 20.487 20.9679 20.487C21.0501 20.487 21.1238 20.4673 21.2017 20.4468L21.2708 20.4284C22.1929 20.1448 22.3309 19.7509 22.3309 19.5415C22.3309 19.3302 22.1588 19.147 21.8704 19.0513Z" fill="white"/>
<path id="path24" d="M18.5217 10.1758V10.1756C20.0338 7.55924 21.5193 4.81902 22.937 2.03104C23.0485 1.85181 23.1506 1.81665 23.271 1.81665L24.5551 1.84105C25.4497 1.84105 26.8625 1.86519 28.8724 1.91479C30.7587 1.96202 32.5485 2.02868 34.6922 2.11108C36.9952 2.19978 38.1748 2.34779 38.6729 2.42809L38.7437 2.4399C39.1628 2.50971 39.5835 2.57977 40.0299 2.6501L40.1319 2.66479C40.608 2.7325 41.0979 2.8023 41.5863 2.91199C41.675 2.94663 41.7469 2.94663 41.8233 2.94663C42.2305 2.94663 42.3757 2.71203 42.3757 2.49264C42.3757 2.20713 42.2116 1.86676 41.4302 1.86676C40.9399 1.86676 40.5857 1.86676 40.4461 1.84367C36.8241 1.34402 31.6444 1.0047 25.0531 0.835178L23.8134 0.785847C23.8127 0.785847 23.8121 0.785847 23.8116 0.785847C23.7373 0.785847 23.6736 0.781647 23.62 0.773251L23.561 0.763535L23.5542 0.703964C23.5355 0.533653 23.45 0.368073 23.3075 0.225315C23.1598 0.0778313 22.9705 -0.00037384 22.7601 -0.00037384C22.5173 -0.00037384 22.2767 0.112206 22.0639 0.325027C21.9878 0.401394 21.9093 0.479866 21.865 0.575649L21.8534 0.593758C21.7705 0.691376 21.639 0.736771 21.4396 0.736771L18.2175 0.663025C16.559 0.637833 14.8703 0.586143 13.3803 0.540222L12.0721 0.515556C8.59742 0.515556 5.10063 0.865105 1.68063 1.55423L0.519204 1.86125C0.0912453 2.05571 0 2.33887 0 2.54172C0 2.97682 0.233714 3.24894 0.641204 3.2883C0.765645 3.31507 0.894391 3.31507 1.04355 3.31507C1.70095 3.31507 2.46074 3.23189 3.30212 3.06814L4.31216 2.92013C9.43113 2.18902 15.0504 1.81744 21.0139 1.81665L21.143 1.81638L21.084 1.93132C21.0538 1.98984 21.0263 2.04337 21.021 2.05204L20.9725 2.11686C15.898 11.1321 10.8198 21.8999 5.88557 34.1122C5.03862 36.1696 4.29576 38.3375 3.67783 40.556C3.65445 40.6038 3.64513 40.6376 3.636 40.6704L3.61897 40.7132C3.58679 40.8103 3.5868 40.8846 3.5868 40.9628C3.5868 41.1226 3.66634 41.2367 3.81088 41.2845L3.83906 41.2939H3.94251C4.14783 41.2939 4.23393 41.0903 4.29093 40.8911L4.3147 40.7709C4.65575 39.6501 5.05062 38.5149 5.48834 37.3967C9.50658 27.4246 13.8915 18.2663 18.5217 10.1758Z" fill="white"/>
</g>
</g>
</svg>
