<svg width="168" height="407" viewBox="0 0 168 407" fill="none" xmlns="http://www.w3.org/2000/svg">
<path d="M0 284.759C0 263.527 6.08357 244.949 18.2507 229.025C30.7298 213.101 47.2646 202.173 67.8552 196.241L99.2089 187.342C108.88 184.532 116.524 179.536 122.139 172.354C128.067 164.861 131.031 156.118 131.031 146.127V69.7848C131.031 59.7933 128.067 51.8312 122.139 45.8987C116.212 39.9662 108.256 37 98.273 37H69.727C59.7437 37 51.7883 39.9662 45.8607 45.8987C39.9331 51.8312 36.9694 59.7933 36.9694 69.7848V80.0886C36.9694 90.0802 34.0056 98.0422 28.078 103.975C22.1504 109.907 14.195 112.873 4.2117 112.873H0V70.2532C0 49.0211 6.39554 32.0042 19.1866 19.2025C31.9777 6.40085 48.9805 0 70.195 0H97.805C119.02 0 136.022 6.40085 148.813 19.2025C161.604 32.0042 168 49.0211 168 70.2532V139.101C168 160.333 161.76 178.911 149.281 194.835C137.114 210.759 120.735 221.688 100.145 227.62L68.7911 236.519C59.1198 239.329 51.3203 244.481 45.3928 251.975C39.7772 259.156 36.9694 267.743 36.9694 277.734V370H168V407H0V284.759Z" fill="#231E1B"/>
</svg>
