<svg width="167" height="406" viewBox="0 0 167 406" fill="none" xmlns="http://www.w3.org/2000/svg">
<path d="M69.7772 0H97.2228C118.311 0 135.213 6.34859 147.928 19.0458C160.643 31.7429 167 48.6209 167 69.6796V157.011C167 170.947 162.813 182.096 154.44 190.458C146.067 198.819 134.903 203 120.947 203H120.482V203.465H120.947C134.903 203.465 146.067 207.645 154.44 216.007C162.813 224.368 167 235.517 167 249.453V336.32C167 357.379 160.643 374.257 147.928 386.954C135.213 399.651 118.311 406 97.2228 406H69.7772C48.6889 406 31.7874 399.651 19.0724 386.954C6.35747 374.257 0 357.379 0 336.32V284.293H4.18663C14.1105 284.293 22.0186 287.235 27.9109 293.119C33.8032 299.003 36.7493 306.9 36.7493 316.81V337.249C36.7493 347.159 39.6954 355.056 45.5877 360.94C51.48 366.825 59.3881 369.767 69.312 369.767H97.688C107.612 369.767 115.52 366.825 121.412 360.94C127.305 355.056 130.251 347.159 130.251 337.249V253.634C130.251 243.724 127.305 235.827 121.412 229.943C115.52 224.059 107.612 221.117 97.688 221.117H64.6602V184.883H97.688C107.612 184.883 115.52 181.941 121.412 176.057C127.305 170.173 130.251 162.276 130.251 152.366V68.7506C130.251 58.8406 127.305 50.9436 121.412 45.0595C115.52 39.1754 107.612 36.2334 97.688 36.2334H69.312C59.3881 36.2334 51.48 39.1754 45.5877 45.0595C39.6954 50.9436 36.7493 58.8406 36.7493 68.7506V89.1899C36.7493 99.0999 33.8032 106.997 27.9109 112.881C22.0186 118.765 14.1105 121.707 4.18663 121.707H0V69.6796C0 48.6209 6.35747 31.7429 19.0724 19.0458C31.7874 6.34859 48.6889 0 69.7772 0Z" fill="#342D29"/>
</svg>
