<svg width="0" height="0" class="hidden">
  <symbol fill="none" xmlns="http://www.w3.org/2000/svg" viewBox="0 0 17 16" id="ic_area">
    <path fill-rule="evenodd" clip-rule="evenodd" d="M0.132356 0.125233C0.00813134 0.242604 6.13662e-05 0.333539 6.13662e-05 1.61825C6.13662e-05 3.30289 -0.0222304 3.25514 0.782916 3.29914L1.32301 3.3287V8V12.6713L0.782916 12.7009C-0.0222304 12.7449 6.13662e-05 12.6971 6.13662e-05 14.3817C6.13662e-05 15.6665 0.00813134 15.7574 0.132356 15.8748C0.256978 15.9925 0.352825 15.9998 1.78227 15.9998C3.58591 15.9998 3.50587 16.0353 3.50587 15.2358V14.7498H8.5H13.4941V15.2358C13.4941 16.0353 13.4141 15.9998 15.2177 15.9998C16.6472 15.9998 16.743 15.9925 16.8676 15.8748C16.9919 15.7574 16.9999 15.6665 16.9999 14.3817C16.9999 12.6971 17.0222 12.7449 16.2171 12.7009L15.677 12.6713V8V3.3287L16.2171 3.29914C17.0222 3.25514 16.9999 3.30289 16.9999 1.61825C16.9999 0.333539 16.9919 0.242604 16.8676 0.125233C16.743 0.00748599 16.6472 0.000236188 15.2177 0.000236188C13.4141 0.000236188 13.4941 -0.0352628 13.4941 0.764151V1.2502H8.5H3.50587V0.764151C3.50587 -0.0352628 3.58591 0.000236188 1.78227 0.000236188C0.352825 0.000236188 0.256978 0.00748599 0.132356 0.125233ZM2.64596 1.62519V2.43766H1.75297H0.859977V1.62519V0.812712H1.75297H2.64596V1.62519ZM16.14 1.62519V2.43766H15.247H14.354V1.62519V0.812712H15.247H16.14V1.62519ZM13.4941 2.52447C13.4941 3.17264 13.5766 3.25789 14.243 3.29826L14.7509 3.32908V8V12.6709L14.243 12.7017C13.5766 12.7421 13.4941 12.8274 13.4941 13.4755V13.9373H8.5H3.50587V13.4755C3.50587 12.8274 3.42339 12.7421 2.75695 12.7017L2.24907 12.6709V8V3.32908L2.75695 3.29826C3.42339 3.25789 3.50587 3.17264 3.50587 2.52447V2.06268H8.5H13.4941V2.52447ZM2.64596 14.3748V15.1873H1.75297H0.859977V14.3748V13.5623H1.75297H2.64596V14.3748ZM16.14 14.3748V15.1873H15.247H14.354V14.3748V13.5623H15.247H16.14V14.3748Z" fill="currentColor"></path>
  </symbol>
  <symbol xmlns="http://www.w3.org/2000/svg" viewBox="0 0 16 15" id="ic_arrow_diagonal">
    <path d="M1.3033 14.3848L14.3848 1.30337M14.3848 1.30337H3.77817M14.3848 1.30337V11.91" stroke="currentColor" stroke-width="1.5"></path>
  </symbol>
  <symbol fill="none" xmlns="http://www.w3.org/2000/svg" viewBox="0 0 23 15" id="ic_arrow_hor">
    <path d="M0 7.5H22M22 7.5L15.4 1M22 7.5L15.4 14" stroke="currentColor"></path>
  </symbol>
  <symbol xmlns="http://www.w3.org/2000/svg" viewBox="0 0 14 13" id="ic_arrow_hor_small">
    <path d="M0.5 6.5H13M13 6.5L7.5 1M13 6.5L7.5 12" stroke="currentColor"></path>
  </symbol>
  <symbol fill="none" xmlns="http://www.w3.org/2000/svg" viewBox="0 0 11 13" id="ic_arrow_ver_small">
    <path d="M5.5 -1.96701e-07L5.5 11.5M5.5 11.5L10 7M5.5 11.5L1 7" stroke="currentColor"></path>
  </symbol>
  <symbol fill="none" xmlns="http://www.w3.org/2000/svg" viewBox="0 0 16 16" id="ic_calendar">
    <path fill-rule="evenodd" clip-rule="evenodd" d="M3.62219 0.156838C3.48669 0.292514 3.46875 0.365142 3.46875 0.777554V1.24456L2.45312 1.26641C1.49756 1.28701 1.41887 1.29816 1.1225 1.45406C0.73975 1.65541 0.317375 2.10132 0.135062 2.49651L0 2.78928V8.64332V14.4974L0.135062 14.7901C0.317125 15.1848 0.73925 15.6308 1.1225 15.8334L1.4375 16H8H14.5625L14.8775 15.8334C15.2608 15.6308 15.6829 15.1848 15.8649 14.7901L16 14.4974V8.64332V2.78928L15.8649 2.49651C15.6826 2.10132 15.2603 1.65541 14.8775 1.45406C14.5811 1.29816 14.5024 1.28701 13.5469 1.26641L12.5312 1.24456V0.777554C12.5312 0.365142 12.5133 0.292514 12.3778 0.156838C12.1691 -0.0522794 11.8309 -0.0522794 11.6222 0.156838C11.4864 0.292827 11.4688 0.364829 11.4688 0.782939V1.25533H8H4.53125V0.782939C4.53125 0.364829 4.51362 0.292827 4.37781 0.156838C4.27194 0.0507141 4.15494 0.00313039 4 0.00313039C3.84506 0.00313039 3.72806 0.0507141 3.62219 0.156838ZM3.46875 2.60427C3.46875 3.03884 3.64731 3.25885 4 3.25885C4.35269 3.25885 4.53125 3.03884 4.53125 2.60427V2.25709H8H11.4688V2.60427C11.4688 3.03884 11.6473 3.25885 12 3.25885C12.3527 3.25885 12.5312 3.03884 12.5312 2.60427V2.25709L13.2344 2.25747C14.04 2.25784 14.3215 2.31895 14.6003 2.55399C14.9013 2.80769 14.9688 3.03941 14.9688 3.82034V4.51105H8H1.03125V3.82034C1.03125 3.06983 1.09644 2.82472 1.361 2.58047C1.62513 2.33667 1.94144 2.26279 2.73438 2.25985L3.46875 2.25709V2.60427ZM14.9688 9.83491C14.9688 13.3436 14.9527 14.1955 14.8835 14.3614C14.7748 14.622 14.4679 14.8813 14.1699 14.9642C13.8495 15.0533 2.1505 15.0533 1.83006 14.9642C1.53212 14.8813 1.22519 14.622 1.1165 14.3614C1.04731 14.1955 1.03125 13.3436 1.03125 9.83491V5.51282H8H14.9688V9.83491Z" fill="currentColor"></path>
  </symbol>
  <symbol fill="none" xmlns="http://www.w3.org/2000/svg" viewBox="0 0 14 13" id="ic_instagram">
    <path d="M11.4275 12.7049C12.412 12.2132 13.1268 11.2902 13.3487 10.2242C13.4671 9.65528 13.4671 3.36942 13.3487 2.80056C13.1269 1.73469 12.412 0.811561 11.4276 0.319837M11.4275 12.7049L11.3828 12.6154C12.3402 12.1373 13.0352 11.2395 13.2508 10.2038L13.2508 10.2038C13.2637 10.1419 13.2764 9.98995 13.2877 9.7603C13.2987 9.53415 13.3079 9.24072 13.3153 8.90204C13.3301 8.2248 13.3375 7.36873 13.3375 6.51235C13.3375 5.65598 13.3301 4.79991 13.3153 4.12267C13.3079 3.78398 13.2987 3.49056 13.2877 3.26441C13.2764 3.03475 13.2637 2.88282 13.2508 2.82094L13.2508 2.82093C13.0353 1.7854 12.3402 0.887519 11.3829 0.409296L11.4276 0.319837M11.4275 12.7049L10.8366 13M11.4275 12.7049L11.3828 12.6154L10.813 12.9M11.4276 0.319837L11.3829 0.409294L10.8131 0.124593M11.4276 0.319837L10.8369 0.0247083M10.8131 0.124593L7.05794 0.106149C5.34247 0.0977305 4.39087 0.0962994 3.82375 0.112518C3.25655 0.128739 3.0848 0.162581 2.92318 0.219655M10.8131 0.124593L10.7922 0.114165L10.8369 0.0247083M10.8131 0.124593L10.8364 0.124707L10.8369 0.0247083M10.8369 0.0247083L7.05843 0.00614974C3.629 -0.0106788 3.24395 0.000330429 2.88987 0.125365C1.67993 0.552763 0.782825 1.56806 0.526331 2.80056C0.40789 3.36942 0.40789 9.65528 0.526331 10.2242C0.748195 11.2902 1.46305 12.2132 2.44754 12.7049M2.44754 12.7049L3.03843 13M2.44754 12.7049L2.49222 12.6154L3.06201 12.9M2.44754 12.7049L2.49222 12.6154C1.53476 12.1373 0.839785 11.2395 0.624233 10.2038L0.624232 10.2038C0.611348 10.1419 0.598561 9.98995 0.587349 9.7603C0.576307 9.53415 0.567078 9.24072 0.559684 8.90204C0.544899 8.2248 0.5375 7.36873 0.5375 6.51235C0.5375 5.65598 0.544899 4.79991 0.559684 4.12267C0.567078 3.78398 0.576307 3.49056 0.587349 3.26441C0.598561 3.03475 0.611348 2.88282 0.624232 2.82094L0.624234 2.82093C0.873433 1.62348 1.74542 0.635683 2.92318 0.219655M3.03843 13H6.9375H10.8366M3.03843 13L3.08311 12.9105L3.06201 12.9M3.03843 13V12.9H3.06201M10.8366 13L10.7919 12.9105L10.813 12.9M10.8366 13V12.9H10.813M10.813 12.9H6.9375H3.06201M2.92318 0.219655L2.88987 0.12538L2.92317 0.219659C2.92317 0.219657 2.92317 0.219656 2.92318 0.219655ZM10.9287 11.6516L10.9287 11.6516L10.4094 11.91L10.3883 11.9204H10.3648H6.9375H3.51017H3.48667L3.46563 11.91L2.94634 11.6516L2.94633 11.6516C2.33744 11.3487 1.97556 10.9498 1.73839 10.319M10.9287 11.6516L1.83199 2.74087L1.73839 2.70566C1.73839 2.70567 1.73839 2.70567 1.73839 2.70567C1.66479 2.90136 1.62728 3.07511 1.60731 3.58648C1.58742 4.09582 1.58468 4.95055 1.58468 6.51235C1.58468 8.07416 1.58742 8.92888 1.60731 9.43822C1.62728 9.94959 1.66479 10.1234 1.73839 10.319M10.9287 11.6516C11.5376 11.3487 11.8994 10.9498 12.1366 10.319C12.2102 10.1234 12.2477 9.9496 12.2677 9.43822C12.2876 8.92888 12.2903 8.07416 12.2903 6.51235C12.2903 4.95055 12.2876 4.09582 12.2677 3.58648C12.2477 3.0751 12.2102 2.90135 12.1366 2.70566L10.9287 11.6516ZM1.73839 10.319L1.83199 10.2838L1.73839 10.319C1.73839 10.319 1.73839 10.319 1.73839 10.319ZM9.96735 2.74313L9.96738 2.7431C10.0158 2.70459 10.0787 2.66815 10.1405 2.64155C10.2046 2.61393 10.2562 2.60181 10.2837 2.60181C10.3113 2.60181 10.3629 2.61393 10.427 2.64155C10.4888 2.66815 10.5517 2.70459 10.6001 2.7431L10.6001 2.74313C10.6722 2.80033 10.7101 2.8463 10.7327 2.89758C10.7559 2.9505 10.7674 3.01936 10.7674 3.13091C10.7674 3.24247 10.7559 3.31133 10.7327 3.36425C10.7101 3.41553 10.6722 3.46149 10.6001 3.5187L10.6001 3.51873C10.5517 3.55724 10.4888 3.59368 10.427 3.62028C10.3629 3.6479 10.3113 3.66002 10.2837 3.66002C10.2562 3.66002 10.2046 3.6479 10.1405 3.62028C10.0787 3.59368 10.0158 3.55724 9.96738 3.51873L9.96735 3.5187C9.89533 3.46149 9.85739 3.41553 9.83483 3.36425C9.81156 3.31133 9.8001 3.24247 9.8001 3.13091C9.8001 3.01936 9.81156 2.9505 9.83483 2.89758C9.85739 2.8463 9.89533 2.80033 9.96735 2.74313ZM4.36663 5.28071L4.27669 5.237L4.36663 5.28071C4.73941 4.51362 5.47589 3.90692 6.281 3.70137C6.35116 3.68349 6.47966 3.66861 6.63443 3.66069C6.78717 3.65287 6.95841 3.65216 7.11064 3.66037C8.13802 3.71575 9.04505 4.32728 9.50836 5.28071L9.59831 5.237L9.50837 5.28071C9.60586 5.48133 9.65548 5.60353 9.68301 5.7642C9.71128 5.92921 9.71682 6.13782 9.71682 6.51235C9.71682 6.88688 9.71128 7.0955 9.68301 7.26051C9.65548 7.42118 9.60587 7.54337 9.50837 7.744L9.59831 7.78771L9.50836 7.744C9.21744 8.34269 8.72559 8.82977 8.11809 9.12012L8.16121 9.21035L8.11809 9.12013C7.88529 9.23141 7.7451 9.28924 7.5886 9.32123C7.43046 9.35355 7.25088 9.3605 6.9375 9.3605C6.62412 9.3605 6.44454 9.35355 6.2864 9.32123C6.1299 9.28924 5.98971 9.23141 5.75691 9.12013L5.71379 9.21035L5.75691 9.12012C5.14941 8.82977 4.65756 8.34269 4.36663 7.744L4.36663 7.744C4.26913 7.54337 4.21952 7.42118 4.19199 7.26051C4.16372 7.0955 4.15817 6.88688 4.15817 6.51235C4.15817 6.13782 4.16372 5.92921 4.19199 5.7642C4.21952 5.60353 4.26913 5.48133 4.36663 5.28071ZM7.47041 4.76351L7.47039 4.76351C6.26889 4.42569 5.14881 5.27343 5.14881 6.52108C5.14881 7.99551 6.83307 8.87018 7.99093 7.97893L7.99093 7.97893C8.94883 7.24153 8.99167 5.86978 8.07381 5.10467L8.0738 5.10467C7.90488 4.96387 7.63764 4.81056 7.47041 4.76351Z" fill="currentColor" stroke="#28221F" stroke-width="0.2"></path>
  </symbol>
  <symbol fill="none" xmlns="http://www.w3.org/2000/svg" viewBox="0 0 13 18" id="ic_location">
    <path fill-rule="evenodd" clip-rule="evenodd" d="M5.37589 0.0968973C2.68224 0.573909 0.580331 2.65275 0.10716 5.30776C0.048265 5.63852 0 6.10646 0 6.3476C0 7.26325 0.34547 8.59948 0.772243 9.33464C0.969829 9.67495 6.37445 17.9075 6.46086 17.9998C6.50539 18.0473 11.7083 10.2296 12.2278 9.33464C12.6545 8.59941 13 7.26318 13 6.3476C13 5.27642 12.6072 3.94631 12.0175 3.02047C10.6142 0.8173 7.94436 -0.357976 5.37589 0.0968973ZM8.00829 1.32327C9.79676 1.87738 11.0854 3.14663 11.6466 4.9068C11.7897 5.3557 11.8138 5.57477 11.8089 6.38274C11.8039 7.21848 11.7801 7.39855 11.6094 7.89383C11.5029 8.20308 11.344 8.58704 11.2562 8.747C11.1685 8.90704 10.0639 10.6047 8.8015 12.5197C6.85481 15.4727 6.49361 15.9835 6.42272 15.8835C5.98345 15.2636 1.82668 8.89994 1.69517 8.646C1.31602 7.91372 1.18659 7.32897 1.18659 6.3476C1.18659 5.58714 1.21467 5.34593 1.35423 4.90926C1.96832 2.98687 3.42424 1.66344 5.42265 1.2111C6.05721 1.06751 7.3659 1.1243 8.00829 1.32327ZM5.68157 3.25641C4.15095 3.67705 3.12452 5.08778 3.25345 6.59366C3.36089 7.84948 4.25208 8.96699 5.47559 9.38011C6.03092 9.56756 7.08371 9.54872 7.62942 9.34146C8.52391 9.00178 9.28717 8.23035 9.59989 7.35005C9.77873 6.84661 9.77873 5.84859 9.59989 5.34515C9.28631 4.46247 8.5168 3.68633 7.62942 3.35762C7.09204 3.15857 6.20517 3.11254 5.68157 3.25641ZM7.19202 4.39443C7.74721 4.56768 8.32812 5.14731 8.50595 5.70543C8.82405 6.70366 8.3753 7.72136 7.39779 8.21889C6.93611 8.45385 6.06389 8.45385 5.60221 8.21889C4.6247 7.72136 4.17594 6.70366 4.49405 5.70543C4.59568 5.38627 4.71527 5.20543 5.02396 4.9037C5.63582 4.30567 6.36124 4.1353 7.19202 4.39443Z" fill="currentColor"></path>
  </symbol>
  <symbol fill="none" xmlns="http://www.w3.org/2000/svg" viewBox="0 0 17 17" id="ic_phone">
    <path fill-rule="evenodd" clip-rule="evenodd" d="M1.76315 1.21332C0.353839 2.59854 0.169691 2.87175 0.0386378 3.77213C-0.105044 4.75924 0.147011 5.82132 0.878646 7.31129C2.27612 10.1575 5.24141 13.4243 8.15499 15.3275C10.0561 16.5693 11.9076 17.1718 13.164 16.9574C14.0983 16.7979 14.3614 16.6207 15.7514 15.2145L17 13.9512L14.7732 11.7239L12.5464 9.4965L11.3183 10.7423L10.0902 11.9881L9.68464 11.7081C8.2785 10.7376 6.59796 9.08561 5.31738 7.41519L4.94023 6.92319L6.18351 5.6767L7.42686 4.43027L5.21218 2.21513L2.99751 0L1.76315 1.21332ZM4.77241 5.56691L3.60503 6.73731L3.92215 7.24686C4.73796 8.55765 6.62057 10.6434 7.98969 11.7534C8.48725 12.1567 9.80287 13.0819 10.0978 13.2359C10.2481 13.3143 10.309 13.2646 11.404 12.1693L12.5526 11.0204L14.0229 12.4929L15.4933 13.9654L14.7004 14.7653C14.2325 15.2374 13.7721 15.6375 13.577 15.7415C13.2768 15.9017 13.1825 15.9174 12.5521 15.9129C11.7691 15.9072 11.1734 15.7482 10.207 15.2873C7.17725 13.8423 3.45897 10.1221 1.83939 6.91551C1.13044 5.51175 0.903838 4.40762 1.15265 3.56864C1.24575 3.2547 1.3616 3.10703 2.1251 2.32929L2.99182 1.44634L4.4658 2.92142L5.93979 4.3965L4.77241 5.56691Z" fill="currentColor"></path>
  </symbol>
  <symbol fill="none" xmlns="http://www.w3.org/2000/svg" viewBox="0 0 18 23" id="ic_video_play">
    <path d="M15.875 9.11515C17.4483 10.3158 17.4483 12.6842 15.875 13.8849L4.82002 22.3216C2.84559 23.8284 1.18373e-07 22.4204 2.00506e-07 19.9367L7.58492e-07 3.06329C8.40625e-07 0.579575 2.84559 -0.828367 4.82002 0.678437L15.875 9.11515Z" fill="currentColor"></path>
  </symbol>
  <symbol fill="none" xmlns="http://www.w3.org/2000/svg" viewBox="0 0 19 11" id="ic_vk">
    <path d="M0.146418 0.202165L0.146416 0.202155L0.124369 0.101855H2.50023H4.91437L5.02314 0.825009C5.20744 2.05077 5.67329 3.19359 6.24451 3.77946C6.24451 3.77946 6.24452 3.77947 6.24452 3.77947L6.43462 3.97453L6.61008 4.15456L6.60623 3.90321L6.58592 2.57671L6.58592 2.5767L6.56553 1.25029L6.56417 1.16164L6.476 1.15237L6.23599 1.12713L6.23596 1.12713L6.08545 1.11125V0.601597V0.101855H8.53244H10.9803L10.9991 2.15158L11.0187 4.30048L11.0208 4.5254L11.1864 4.37319L11.4235 4.1553C11.7183 3.88433 12.0264 3.40303 12.3083 2.81105C12.5914 2.21646 12.8524 1.50094 13.0495 0.753128L13.2107 0.141624L16.0615 0.121126L18.8088 0.101297L18.0835 1.28597L18.1688 1.33819L18.0835 1.28598C17.6328 2.02229 16.7855 3.42023 16.2007 4.39262L15.1375 6.1604L15.1014 6.22035L15.1454 6.27477L16.5944 8.06883L18.4828 10.4071L18.7908 10.7887H15.9736H12.9871L12.1203 9.9653L11.2245 9.11436L11.056 8.95429L11.0556 9.1867L11.0548 9.69491C11.0542 10.1166 11.0382 10.3783 10.9988 10.5406C10.9794 10.6206 10.956 10.6683 10.9324 10.6976C10.9106 10.7246 10.8849 10.7408 10.8486 10.7508C9.97853 10.9892 8.54782 10.9384 7.44163 10.6238C6.76464 10.4312 5.67809 9.8854 5.05775 9.42525C2.75771 7.71901 1.13014 4.67969 0.146418 0.202165ZM4.19563 1.77501L4.19563 1.775L4.06903 1.19034L4.05196 1.1115H3.9713H2.76258C2.27263 1.1115 1.96557 1.11666 1.78067 1.13379C1.68992 1.1422 1.6183 1.15423 1.56717 1.17487C1.54093 1.18546 1.5125 1.20125 1.4902 1.22677C1.46561 1.25492 1.45386 1.28881 1.45386 1.32351C1.45386 1.36548 1.46657 1.4299 1.48361 1.50119C1.50159 1.57642 1.52739 1.67088 1.55906 1.77903C1.62246 1.99551 1.71039 2.27037 1.80902 2.56276C2.00609 3.14696 2.24749 3.80589 2.42357 4.2135L2.42357 4.2135C2.99789 5.54281 3.67314 6.60244 4.53886 7.52959C5.42983 8.48381 6.19585 9.01886 7.23821 9.41C7.62544 9.55533 8.13641 9.68054 8.60316 9.7586C8.83688 9.79769 9.06119 9.82525 9.25494 9.83747C9.44654 9.84956 9.6156 9.8472 9.73515 9.82271L9.73517 9.82271L9.99397 9.76965L10.0739 9.75326V9.67169V8.06253C10.0739 7.62078 10.0801 7.21986 10.0901 6.92993C10.0941 6.81541 10.0986 6.71894 10.1035 6.64442C10.1071 6.64765 10.1108 6.65094 10.1147 6.65431C10.2043 6.73359 10.3308 6.84859 10.4851 6.99094C10.7936 7.2755 11.2118 7.66804 11.6651 8.09978L13.3144 9.67079L13.3434 9.69838H13.3834H14.8546C15.2599 9.69838 15.6287 9.69341 15.8967 9.68538C16.0304 9.68137 16.1401 9.67657 16.2168 9.67115C16.2548 9.66847 16.2868 9.6655 16.3102 9.66209C16.3213 9.66048 16.3344 9.65823 16.3463 9.65473C16.3515 9.6532 16.3627 9.64972 16.3745 9.64278C16.3804 9.63931 16.3912 9.63229 16.4015 9.62026C16.4123 9.60755 16.4258 9.58503 16.4258 9.55427C16.4258 9.53478 16.4199 9.51991 16.4187 9.51685L16.4186 9.51657C16.4165 9.51119 16.4143 9.50687 16.413 9.50438C16.4103 9.49921 16.4073 9.49443 16.4051 9.4909C16.4004 9.48348 16.3942 9.47459 16.3874 9.465C16.3735 9.4455 16.3536 9.4187 16.3288 9.38589C16.279 9.32005 16.2074 9.22751 16.1197 9.11546C15.9444 8.89124 15.7039 8.58759 15.4427 8.26041C14.9206 7.60622 14.3152 6.85661 13.9831 6.45859L13.8514 6.30073L15.3019 3.92713C15.7111 3.25741 16.0878 2.6356 16.3649 2.17326C16.5035 1.94213 16.6173 1.75065 16.6979 1.61289C16.7382 1.54407 16.7704 1.48831 16.7933 1.44758C16.8047 1.42727 16.8141 1.41022 16.8212 1.39694C16.8267 1.38645 16.8346 1.37138 16.8389 1.35908L16.839 1.35898C16.8487 1.33135 16.8547 1.291 16.8343 1.24942C16.8154 1.21061 16.7822 1.18907 16.7556 1.17673C16.705 1.15323 16.6298 1.14123 16.5349 1.133C16.3385 1.11598 15.9953 1.1115 15.425 1.1115H14.0653H13.9905L13.9694 1.18321L13.798 1.76414C13.798 1.76415 13.798 1.76416 13.798 1.76416C13.7057 2.077 13.4483 2.72527 13.2263 3.20197C12.4435 4.88264 11.2811 5.86944 10.182 5.86944H10V3.58837V1.20731V1.10531L9.89805 1.10733L8.77169 1.12958L7.64532 1.15184L7.54811 1.15376L7.5473 1.25099L7.52773 3.60408L7.50934 5.81505L7.19273 5.69828L7.19272 5.69828C6.57334 5.46992 5.74894 4.84179 5.32026 4.26915C4.8704 3.66822 4.36104 2.53925 4.19563 1.77501Z" fill="currentColor" stroke="#28221F" stroke-width="0.2"></path>
  </symbol>
  <symbol fill="none" xmlns="http://www.w3.org/2000/svg" viewBox="0 0 14 14" id="ic_whatsapp">
    <path d="M0 13.9782L1.00528 10.2525C0.194547 8.80112 -0.0630311 7.1075 0.279812 5.48242C0.622655 3.85733 1.54292 2.40977 2.87174 1.40538C4.20056 0.400988 5.8488 -0.0928705 7.514 0.0144288C9.17921 0.121728 10.7497 0.822988 11.9372 1.98953C13.1248 3.15606 13.8498 4.70963 13.9791 6.36515C14.1085 8.02066 13.6336 9.66707 12.6415 11.0023C11.6494 12.3375 10.2068 13.2719 8.57827 13.634C6.94975 13.9962 5.24461 13.7618 3.77573 12.9739L0 13.9782ZM3.95779 11.5797L4.1913 11.7176C5.25524 12.3451 6.4979 12.6048 7.72564 12.4561C8.95337 12.3075 10.0972 11.7589 10.9789 10.8958C11.8606 10.0328 12.4306 8.9037 12.6002 7.68458C12.7697 6.46547 12.5292 5.2248 11.9161 4.15591C11.3031 3.08701 10.3519 2.24994 9.21089 1.77514C8.06985 1.30033 6.80302 1.21447 5.60781 1.53092C4.41261 1.84738 3.35617 2.54838 2.60314 3.52468C1.8501 4.50098 1.44276 5.69774 1.44459 6.92847C1.44359 7.94894 1.72721 8.94966 2.26386 9.81925L2.4103 10.0595L1.84829 12.139L3.95779 11.5797Z" fill="currentColor"></path>
    <path fill-rule="evenodd" clip-rule="evenodd" d="M9.62401 7.88504C9.48712 7.77517 9.32684 7.69784 9.15537 7.65893C8.98391 7.62003 8.80578 7.62058 8.63456 7.66055C8.37731 7.76688 8.21108 8.1686 8.04485 8.36946C8.0098 8.41761 7.95829 8.45138 7.9 8.46443C7.8417 8.47748 7.78063 8.46892 7.72823 8.44035C6.7864 8.07328 5.99696 7.40012 5.48812 6.53023C5.44472 6.47594 5.42417 6.40702 5.43082 6.33797C5.43746 6.26892 5.47077 6.20512 5.52374 6.16002C5.70913 5.97738 5.84526 5.75117 5.91952 5.50231C5.936 5.22781 5.87281 4.95438 5.73746 4.71463C5.63282 4.37851 5.43368 4.07922 5.16358 3.85212C5.02426 3.78977 4.86979 3.76886 4.71881 3.79192C4.56782 3.81499 4.42676 3.88103 4.31265 3.98209C4.11455 4.15216 3.95731 4.36429 3.85251 4.60285C3.74772 4.84141 3.69803 5.10032 3.70711 5.36052C3.70772 5.50664 3.72633 5.65214 3.76252 5.79375C3.85442 6.13399 3.99575 6.45905 4.18204 6.75865C4.31645 6.98815 4.4631 7.21034 4.62136 7.42424C5.13569 8.12685 5.78222 8.72339 6.52506 9.18077C6.89782 9.41319 7.29622 9.60216 7.7124 9.74396C8.14471 9.93897 8.62203 10.0138 9.09367 9.96057C9.36238 9.92009 9.61699 9.81452 9.83507 9.65313C10.0532 9.49174 10.228 9.27949 10.3443 9.03505C10.4127 8.88738 10.4334 8.7223 10.4037 8.56244C10.3325 8.23555 9.89314 8.04257 9.62401 7.88504Z" fill="currentColor"></path>
  </symbol>
  <symbol fill="none" xmlns="http://www.w3.org/2000/svg" viewBox="0 0 16 11" id="ic_youtube">
    <path fill-rule="evenodd" clip-rule="evenodd" d="M4.80008 0.0524372C3.3219 0.111618 2.35413 0.210966 1.88677 0.351551C1.1624 0.569439 0.590745 1.1193 0.358065 1.82187C-0.0447902 3.03859 -0.124762 6.56164 0.205544 8.54474C0.425998 9.86812 1.10645 10.5586 2.40247 10.7741C3.30412 10.924 5.23874 11.0012 8.06184 11C10.8641 10.9988 12.6854 10.9243 13.5965 10.7737C14.8916 10.5595 15.5729 9.86829 15.7934 8.54474C16.1259 6.54845 16.045 3.06087 15.6377 1.83042C15.3956 1.09928 14.8339 0.563676 14.0816 0.346679C13.8586 0.282328 13.3954 0.201994 13.0523 0.168066C11.3994 0.00490212 7.39113 -0.051308 4.80008 0.0524372ZM11.1185 0.998145C12.7066 1.06458 13.5855 1.1521 13.8945 1.27456C14.1518 1.37658 14.4913 1.67296 14.621 1.9088C15.0846 2.75225 15.1396 7.48115 14.7025 8.92389C14.661 9.06103 14.5133 9.26816 14.338 9.43507C13.8763 9.87489 13.4983 9.93027 10.2232 10.0379C7.13474 10.1393 3.28659 10.0174 2.26392 9.78564C1.88072 9.69877 1.40201 9.27238 1.2964 8.92389C0.859045 7.4802 0.914003 2.75278 1.37793 1.9088C1.50768 1.67279 1.84709 1.37658 2.10548 1.27397C2.79248 1.00106 7.64177 0.852629 11.1185 0.998145ZM5.97209 5.51296C5.97209 7.12053 5.99517 8.42691 6.02343 8.41598C6.25723 8.32578 11.3322 5.53441 11.3207 5.50238C11.3065 5.46293 6.22785 2.68362 6.05374 2.61998C5.98712 2.59568 5.97209 3.12837 5.97209 5.51296ZM8.43395 4.98657C8.93262 5.2577 9.34003 5.49406 9.33928 5.51183C9.33853 5.52954 8.95258 5.75105 8.48154 6.004C8.01057 6.25694 7.47777 6.54494 7.29768 6.64394L6.97018 6.82397V5.51052V4.19701L7.24871 4.34532C7.40192 4.4269 7.93527 4.71544 8.43395 4.98657Z" fill="currentColor"></path>
  </symbol>
</svg>