<svg width="165" height="181" viewBox="0 0 165 181" fill="none" xmlns="http://www.w3.org/2000/svg">
<g id="02">
<path d="M0 31.0641C0 21.6758 2.82332 14.1514 8.46995 8.49085C14.1166 2.83028 21.6225 0 30.9876 0H45.2419C54.6071 0 62.113 2.83028 67.7596 8.49085C73.4062 14.1514 76.2295 21.6758 76.2295 31.0641V149.936C76.2295 159.324 73.4062 166.849 67.7596 172.509C62.113 178.17 54.6071 181 45.2419 181H30.9876C21.6225 181 14.1166 178.17 8.46995 172.509C2.82332 166.849 0 159.324 0 149.936V31.0641ZM30.781 164.64H45.4485C49.8556 164.64 53.3676 163.328 55.9843 160.705C58.601 158.082 59.9094 154.561 59.9094 150.143V30.857C59.9094 26.439 58.601 22.9184 55.9843 20.2952C53.3676 17.672 49.8556 16.3604 45.4485 16.3604H30.781C26.3739 16.3604 22.862 17.672 20.2452 20.2952C17.6285 22.9184 16.3201 26.439 16.3201 30.857V150.143C16.3201 154.561 17.6285 158.082 20.2452 160.705C22.862 163.328 26.3739 164.64 30.781 164.64Z" fill="#ED9468"/>
<path d="M90.8363 125.913C90.8363 116.525 93.5219 108.31 98.8931 101.269C104.402 94.2277 111.701 89.3955 120.791 86.7723L134.632 82.8375C138.902 81.595 142.276 79.386 144.755 76.2105C147.371 72.897 148.68 69.0313 148.68 64.6133V30.857C148.68 26.439 147.371 22.9184 144.755 20.2952C142.138 17.672 138.626 16.3604 134.219 16.3604H121.617C117.21 16.3604 113.698 17.672 111.082 20.2952C108.465 22.9184 107.156 26.439 107.156 30.857V35.413C107.156 39.831 105.848 43.3516 103.231 45.9748C100.615 48.598 97.1027 49.9096 92.6956 49.9096H90.8363V31.0641C90.8363 21.6758 93.6596 14.1514 99.3063 8.49085C104.953 2.83028 112.459 0 121.824 0H134.012C143.378 0 150.883 2.83028 156.53 8.49085C162.177 14.1514 165 21.6758 165 31.0641V61.5069C165 70.8951 162.246 79.1098 156.737 86.151C151.365 93.1922 144.135 98.0244 135.045 100.648L121.204 104.582C116.935 105.825 113.492 108.103 110.875 111.416C108.396 114.592 107.156 118.389 107.156 122.807V163.604H165V179.965H90.8363V125.913Z" fill="#ED9468"/>
</g>
</svg>
