<svg width="129" height="184" viewBox="0 0 129 184" fill="none" xmlns="http://www.w3.org/2000/svg">
<g id="01">
<path d="M0 31.5789C0 22.0351 2.86572 14.386 8.59716 8.63159C14.3286 2.87719 21.9472 0 31.453 0H45.9214C55.4272 0 63.0458 2.87719 68.7773 8.63159C74.5087 14.386 77.3744 22.0351 77.3744 31.5789V152.421C77.3744 161.965 74.5087 169.614 68.7773 175.368C63.0458 181.123 55.4272 184 45.9214 184H31.453C21.9472 184 14.3286 181.123 8.59716 175.368C2.86572 169.614 0 161.965 0 152.421V31.5789ZM31.2433 167.368H46.1311C50.6044 167.368 54.1691 166.035 56.8251 163.368C59.4812 160.702 60.8092 157.123 60.8092 152.632V31.3684C60.8092 26.8772 59.4812 23.2982 56.8251 20.6316C54.1691 17.9649 50.6044 16.6316 46.1311 16.6316H31.2433C26.77 16.6316 23.2053 17.9649 20.5493 20.6316C17.8933 23.2982 16.5653 26.8772 16.5653 31.3684V152.632C16.5653 157.123 17.8933 160.702 20.5493 163.368C23.2053 166.035 26.77 167.368 31.2433 167.368Z" fill="#231E1B"/>
<path d="M96.0792 2.73684V1.05263H129V182.947H112.644V17.4737H110.757C106.284 17.4737 102.719 16.1403 100.063 13.4737C97.4072 10.807 96.0792 7.22807 96.0792 2.73684Z" fill="#231E1B"/>
</g>
</svg>
